<?xml version="1.0" encoding="UTF-8"?>
<svg id="Layer_2" data-name="Layer 2" xmlns="http://www.w3.org/2000/svg" xmlns:xlink="http://www.w3.org/1999/xlink" viewBox="0 0 115.69 125.09">
  <defs>
    <style>
      .cls-1 {
        fill: url(#New_Gradient_Swatch-13);
      }

      .cls-2 {
        fill: #af256e;
      }

      .cls-3 {
        fill: url(#New_Gradient_Swatch-17);
      }

      .cls-4 {
        fill: #fff;
      }

      .cls-5 {
        fill: url(#New_Gradient_Swatch-7);
      }

      .cls-6 {
        fill: url(#New_Gradient_Swatch-18);
      }

      .cls-7 {
        fill: url(#New_Gradient_Swatch-6);
      }

      .cls-8 {
        fill: url(#New_Gradient_Swatch);
      }

      .cls-9 {
        fill: url(#New_Gradient_Swatch-5);
      }

      .cls-10 {
        fill: url(#New_Gradient_Swatch-16);
      }

      .cls-11 {
        fill: url(#New_Gradient_Swatch-8);
      }

      .cls-12 {
        fill: url(#New_Gradient_Swatch-4);
      }

      .cls-13 {
        fill: url(#New_Gradient_Swatch-3);
      }

      .cls-14 {
        fill: url(#New_Gradient_Swatch-14);
      }

      .cls-15 {
        fill: url(#New_Gradient_Swatch-10);
      }

      .cls-16 {
        fill: #da5c84;
      }

      .cls-17 {
        fill: url(#New_Gradient_Swatch-12);
      }

      .cls-18 {
        fill: url(#New_Gradient_Swatch-9);
      }

      .cls-19 {
        fill: url(#New_Gradient_Swatch-15);
      }

      .cls-20 {
        fill: url(#New_Gradient_Swatch-11);
      }

      .cls-21 {
        fill: url(#New_Gradient_Swatch-2);
      }
    </style>
    <linearGradient id="New_Gradient_Swatch" data-name="New Gradient Swatch" x1="-1157.98" y1="1202.1" x2="-1157.98" y2="1146.48" gradientTransform="translate(-910.17 80.76) rotate(-132.71) scale(.57 .58)" gradientUnits="userSpaceOnUse">
      <stop offset="0" stop-color="#fdba4d"/>
      <stop offset=".43" stop-color="#ef9463"/>
      <stop offset="1" stop-color="#dc5d85"/>
    </linearGradient>
    <linearGradient id="New_Gradient_Swatch-2" data-name="New Gradient Swatch" x1="-1156.58" y1="1202.04" x2="-1156.58" y2="1146.43" xlink:href="#New_Gradient_Swatch"/>
    <linearGradient id="New_Gradient_Swatch-3" data-name="New Gradient Swatch" x1="-1155.19" y1="1201.99" x2="-1155.19" y2="1146.37" xlink:href="#New_Gradient_Swatch"/>
    <linearGradient id="New_Gradient_Swatch-4" data-name="New Gradient Swatch" x1="-1153.8" y1="1201.93" x2="-1153.8" y2="1146.32" xlink:href="#New_Gradient_Swatch"/>
    <linearGradient id="New_Gradient_Swatch-5" data-name="New Gradient Swatch" x1="-1152.41" y1="1201.88" x2="-1152.41" y2="1146.26" xlink:href="#New_Gradient_Swatch"/>
    <linearGradient id="New_Gradient_Swatch-6" data-name="New Gradient Swatch" x1="-1151.02" y1="1201.83" x2="-1151.02" y2="1146.21" xlink:href="#New_Gradient_Swatch"/>
    <linearGradient id="New_Gradient_Swatch-7" data-name="New Gradient Swatch" x1="-1149.62" y1="1201.77" x2="-1149.62" y2="1146.16" xlink:href="#New_Gradient_Swatch"/>
    <linearGradient id="New_Gradient_Swatch-8" data-name="New Gradient Swatch" x1="-1148.23" y1="1201.72" x2="-1148.23" y2="1146.1" xlink:href="#New_Gradient_Swatch"/>
    <linearGradient id="New_Gradient_Swatch-9" data-name="New Gradient Swatch" x1="-1146.84" y1="1201.66" x2="-1146.84" y2="1146.05" xlink:href="#New_Gradient_Swatch"/>
    <linearGradient id="New_Gradient_Swatch-10" data-name="New Gradient Swatch" x1="-63.02" y1="842.9" x2="-63.02" y2="777.6" gradientTransform="translate(-552.33 -24.31) rotate(-87.1) scale(.8)" xlink:href="#New_Gradient_Swatch"/>
    <linearGradient id="New_Gradient_Swatch-11" data-name="New Gradient Swatch" x1="-62.35" y1="842.16" x2="-62.35" y2="776.86" gradientTransform="translate(-552.33 -24.31) rotate(-87.1) scale(.8)" xlink:href="#New_Gradient_Swatch"/>
    <linearGradient id="New_Gradient_Swatch-12" data-name="New Gradient Swatch" x1="-61.68" y1="841.42" x2="-61.68" y2="776.11" gradientTransform="translate(-552.33 -24.31) rotate(-87.1) scale(.8)" xlink:href="#New_Gradient_Swatch"/>
    <linearGradient id="New_Gradient_Swatch-13" data-name="New Gradient Swatch" x1="-61.01" y1="840.67" x2="-61.01" y2="775.37" gradientTransform="translate(-552.33 -24.31) rotate(-87.1) scale(.8)" xlink:href="#New_Gradient_Swatch"/>
    <linearGradient id="New_Gradient_Swatch-14" data-name="New Gradient Swatch" x1="-60.34" y1="839.93" x2="-60.34" y2="774.62" gradientTransform="translate(-552.33 -24.31) rotate(-87.1) scale(.8)" xlink:href="#New_Gradient_Swatch"/>
    <linearGradient id="New_Gradient_Swatch-15" data-name="New Gradient Swatch" x1="-59.67" y1="839.18" x2="-59.67" y2="773.88" gradientTransform="translate(-552.33 -24.31) rotate(-87.1) scale(.8)" xlink:href="#New_Gradient_Swatch"/>
    <linearGradient id="New_Gradient_Swatch-16" data-name="New Gradient Swatch" x1="-59.01" y1="838.44" x2="-59.01" y2="773.13" gradientTransform="translate(-552.33 -24.31) rotate(-87.1) scale(.8)" xlink:href="#New_Gradient_Swatch"/>
    <linearGradient id="New_Gradient_Swatch-17" data-name="New Gradient Swatch" x1="-58.34" y1="837.69" x2="-58.34" y2="772.39" gradientTransform="translate(-552.33 -24.31) rotate(-87.1) scale(.8)" xlink:href="#New_Gradient_Swatch"/>
    <linearGradient id="New_Gradient_Swatch-18" data-name="New Gradient Swatch" x1="-57.67" y1="836.95" x2="-57.67" y2="771.65" gradientTransform="translate(-552.33 -24.31) rotate(-87.1) scale(.8)" xlink:href="#New_Gradient_Swatch"/>
  </defs>
  <g id="addYourDesign">
    <g>
      <path class="cls-4" d="M57.33,125.09c-2.51,0-5.03-.61-7.28-1.76-3.31-1.7-8.42-3.72-13.95-3.72-.98,0-1.95,.07-2.88,.2-2.04,.28-4.05,.43-5.96,.43h0c-10.72,0-19.51-4.58-24.12-12.57-4.24-7.35-4.18-16.59,.16-24.1,4.5-7.79,12.74-12.44,22.05-12.44,.97,0,1.96,.05,2.95,.15,16.61,1.7,34.33,14.13,43.1,30.24,2.71,4.98,2.6,10.86-.3,15.73-2.88,4.85-8.15,7.86-13.76,7.86Z"/>
      <g>
        <path class="cls-8" d="M59.02,118.36c-1.18,0-2.37-.29-3.44-.84-4.14-2.12-10.58-4.65-17.79-4.65-1.37,0-2.72,.09-4.04,.28-1.66,.23-3.27,.35-4.8,.35h0c-10.45,0-15.03-5.24-16.84-8.36-2.75-4.75-2.69-10.77,.16-15.69,2.98-5.16,8.5-8.24,14.76-8.24,.69,0,1.39,.04,2.09,.11,13.79,1.41,29.17,12.3,36.56,25.89,1.28,2.34,1.22,5.12-.14,7.41-1.37,2.31-3.87,3.74-6.53,3.74Z"/>
        <path class="cls-21" d="M58.45,117.8c-1.18,0-2.37-.29-3.44-.84-4.14-2.12-10.58-4.65-17.79-4.65-1.37,0-2.72,.09-4.04,.28-1.66,.23-3.27,.35-4.8,.35h0c-10.45,0-15.03-5.24-16.84-8.36-2.75-4.75-2.69-10.77,.16-15.69,2.98-5.16,8.5-8.24,14.76-8.24,.69,0,1.39,.04,2.09,.11,13.79,1.41,29.17,12.3,36.56,25.89,1.28,2.34,1.22,5.12-.14,7.41-1.37,2.31-3.87,3.74-6.53,3.74Z"/>
        <path class="cls-13" d="M57.89,117.24c-1.18,0-2.37-.29-3.44-.84-4.14-2.12-10.58-4.65-17.79-4.65-1.37,0-2.72,.09-4.04,.28-1.66,.23-3.27,.35-4.8,.35h0c-10.45,0-15.03-5.24-16.84-8.36-2.75-4.75-2.69-10.77,.16-15.69,2.98-5.16,8.5-8.24,14.76-8.24,.69,0,1.39,.04,2.09,.11,13.79,1.41,29.17,12.3,36.56,25.89,1.28,2.34,1.22,5.12-.14,7.41-1.37,2.31-3.87,3.74-6.53,3.74Z"/>
        <path class="cls-12" d="M57.33,116.68c-1.18,0-2.37-.29-3.44-.84-4.14-2.12-10.58-4.65-17.79-4.65-1.37,0-2.72,.09-4.04,.28-1.66,.23-3.27,.35-4.8,.35h0c-10.45,0-15.03-5.24-16.84-8.36-2.75-4.75-2.69-10.77,.16-15.69,2.98-5.16,8.5-8.24,14.76-8.24,.69,0,1.39,.04,2.09,.11,13.79,1.41,29.17,12.3,36.56,25.89,1.28,2.34,1.22,5.12-.14,7.41-1.37,2.31-3.87,3.74-6.53,3.74Z"/>
        <path class="cls-9" d="M56.77,116.12c-1.18,0-2.37-.29-3.44-.84-4.14-2.12-10.58-4.65-17.79-4.65-1.37,0-2.72,.09-4.04,.28-1.66,.23-3.27,.35-4.8,.35h0c-10.45,0-15.03-5.24-16.84-8.36-2.75-4.75-2.69-10.77,.16-15.69,2.98-5.16,8.5-8.24,14.76-8.24,.69,0,1.39,.04,2.09,.11,13.79,1.41,29.17,12.3,36.56,25.89,1.28,2.34,1.22,5.12-.14,7.41-1.37,2.31-3.87,3.74-6.53,3.74Z"/>
        <path class="cls-7" d="M56.21,115.56c-1.18,0-2.37-.29-3.44-.84-4.14-2.12-10.58-4.65-17.79-4.65-1.37,0-2.72,.09-4.04,.28-1.66,.23-3.27,.35-4.8,.35h0c-10.45,0-15.03-5.24-16.84-8.36-2.75-4.75-2.69-10.77,.16-15.69,2.98-5.16,8.5-8.24,14.76-8.24,.69,0,1.39,.04,2.09,.11,13.79,1.41,29.17,12.3,36.56,25.89,1.28,2.34,1.22,5.12-.14,7.41-1.37,2.31-3.87,3.74-6.53,3.74Z"/>
        <path class="cls-5" d="M55.65,115c-1.18,0-2.37-.29-3.44-.84-4.14-2.12-10.58-4.65-17.79-4.65-1.37,0-2.72,.09-4.04,.28-1.66,.23-3.27,.35-4.8,.35h0c-10.45,0-15.03-5.24-16.84-8.36-2.75-4.75-2.69-10.77,.16-15.69,2.98-5.16,8.5-8.24,14.76-8.24,.69,0,1.39,.04,2.09,.11,13.79,1.41,29.17,12.3,36.56,25.89,1.28,2.34,1.22,5.12-.14,7.41-1.37,2.31-3.87,3.74-6.53,3.74Z"/>
        <path class="cls-11" d="M55.09,114.43c-1.18,0-2.37-.29-3.44-.84-4.14-2.12-10.58-4.65-17.79-4.65-1.37,0-2.72,.09-4.04,.28-1.66,.23-3.27,.35-4.8,.35h0c-10.45,0-15.03-5.24-16.84-8.36-2.75-4.75-2.69-10.77,.16-15.69,2.98-5.16,8.5-8.24,14.76-8.24,.69,0,1.39,.04,2.09,.11,13.79,1.41,29.17,12.3,36.56,25.89,1.28,2.34,1.22,5.12-.14,7.41-1.37,2.31-3.87,3.74-6.53,3.74Z"/>
        <path class="cls-18" d="M54.53,113.87c-1.18,0-2.37-.29-3.44-.84-4.14-2.12-10.58-4.65-17.79-4.65-1.37,0-2.72,.09-4.04,.28-1.66,.23-3.27,.35-4.8,.35h0c-10.45,0-15.03-5.24-16.84-8.36-2.75-4.75-2.69-10.77,.16-15.69,2.98-5.16,8.5-8.24,14.76-8.24,.69,0,1.39,.04,2.09,.11,13.79,1.41,29.17,12.3,36.56,25.89,1.28,2.34,1.22,5.12-.14,7.41-1.37,2.31-3.87,3.74-6.53,3.74Z"/>
      </g>
      <path class="cls-2" d="M54.53,113.87c-1.18,0-2.37-.29-3.44-.84-4.14-2.12-10.58-4.65-17.79-4.65-1.37,0-2.72,.09-4.04,.28-1.66,.23-3.27,.35-4.8,.35h0c-10.45,0-15.03-5.24-16.84-8.36-2.75-4.75-2.69-10.77,.16-15.69,2.98-5.16,8.5-8.24,14.76-8.24,.69,0,1.39,.04,2.09,.11,13.79,1.41,29.17,12.3,36.56,25.89,1.28,2.34,1.22,5.12-.14,7.41-1.37,2.31-3.87,3.74-6.53,3.74Z"/>
      <g>
        <path class="cls-4" d="M55.43,104.56c.9,1.65-.95,3.51-2.62,2.65-5.48-2.81-14.84-6.38-25.16-4.94-23.73,3.31-20.86-22.39-4.43-20.71,12.76,1.3,26.07,11.71,32.21,23Z"/>
        <path class="cls-4" d="M55.71,104.84c.9,1.65-.95,3.51-2.62,2.65-5.48-2.81-14.84-6.38-25.16-4.94-23.73,3.31-20.86-22.39-4.43-20.71,12.76,1.3,26.07,11.71,32.21,23Z"/>
        <path class="cls-4" d="M55.99,105.12c.9,1.65-.95,3.51-2.62,2.65-5.48-2.81-14.84-6.38-25.16-4.94-23.73,3.31-20.86-22.39-4.43-20.71,12.76,1.3,26.07,11.71,32.21,23Z"/>
        <path class="cls-4" d="M56.27,105.4c.9,1.65-.95,3.51-2.62,2.65-5.48-2.81-14.84-6.38-25.16-4.94-23.73,3.31-20.86-22.39-4.43-20.71,12.76,1.3,26.07,11.71,32.21,23Z"/>
      </g>
      <path class="cls-16" d="M57.12,104.56c.9,1.65-.95,3.51-2.62,2.65-5.48-2.81-14.84-6.38-25.16-4.94-23.73,3.31-20.86-22.39-4.43-20.71,12.76,1.3,26.07,11.71,32.21,23Z"/>
    </g>
    <g>
      <path class="cls-4" d="M94.76,112.96c-7.83,0-14.6-5.04-16.85-12.55-2.45-8.18-8.42-23.38-20.89-33.3-16.39-13.03-22.99-29.93-17.66-45.21C43.94,8.8,56.44,0,70.46,0c10.75,0,20.62,5.1,27.77,14.37,16.59,21.48,22.08,56.87,13.35,86.07-2.24,7.49-9,12.52-16.81,12.52Z"/>
      <g>
        <path class="cls-15" d="M96.45,106.24c-4.08,0-7.62-2.63-8.79-6.55-3.34-11.15-10.16-26.69-23.72-37.47-19.41-15.43-16.92-30.21-14.95-35.85,3.4-9.73,12.7-16.27,23.15-16.27,8.09,0,15.59,3.94,21.12,11.1,14.8,19.16,19.82,52.18,11.94,78.52-1.17,3.9-4.68,6.52-8.75,6.52Z"/>
        <path class="cls-20" d="M95.89,105.68c-4.08,0-7.62-2.63-8.79-6.55-3.34-11.15-10.16-26.69-23.72-37.47-19.41-15.43-16.92-30.21-14.95-35.85,3.4-9.73,12.7-16.27,23.15-16.27,8.09,0,15.59,3.94,21.12,11.1,14.8,19.16,19.82,52.18,11.94,78.52-1.17,3.9-4.68,6.52-8.75,6.52Z"/>
        <path class="cls-17" d="M95.33,105.11c-4.08,0-7.62-2.63-8.79-6.55-3.34-11.15-10.16-26.69-23.72-37.47-19.41-15.43-16.92-30.21-14.95-35.85,3.4-9.73,12.7-16.27,23.15-16.27,8.09,0,15.59,3.94,21.12,11.1,14.8,19.16,19.82,52.18,11.94,78.52-1.17,3.9-4.68,6.52-8.75,6.52Z"/>
        <path class="cls-1" d="M94.76,104.55c-4.08,0-7.62-2.63-8.79-6.55-3.34-11.15-10.16-26.69-23.72-37.47-19.41-15.43-16.92-30.21-14.95-35.85,3.4-9.73,12.7-16.27,23.15-16.27,8.09,0,15.59,3.94,21.12,11.1,14.8,19.16,19.82,52.18,11.94,78.52-1.17,3.9-4.68,6.52-8.75,6.52Z"/>
        <path class="cls-14" d="M94.2,103.99c-4.08,0-7.62-2.63-8.79-6.55-3.34-11.15-10.16-26.69-23.72-37.47-19.41-15.43-16.92-30.21-14.95-35.85,3.4-9.73,12.7-16.27,23.15-16.27,8.09,0,15.59,3.94,21.12,11.1,14.8,19.16,19.82,52.18,11.94,78.52-1.17,3.9-4.68,6.52-8.75,6.52Z"/>
        <path class="cls-19" d="M93.64,103.43c-4.08,0-7.62-2.63-8.79-6.55-3.34-11.15-10.16-26.69-23.72-37.47-19.41-15.43-16.92-30.21-14.95-35.85,3.4-9.73,12.7-16.27,23.15-16.27,8.09,0,15.59,3.94,21.12,11.1,14.8,19.16,19.82,52.18,11.94,78.52-1.17,3.9-4.68,6.52-8.75,6.52Z"/>
        <path class="cls-10" d="M93.08,102.87c-4.08,0-7.62-2.63-8.79-6.55-3.34-11.15-10.16-26.69-23.72-37.47-19.41-15.43-16.92-30.21-14.95-35.85,3.4-9.73,12.7-16.27,23.15-16.27,8.09,0,15.59,3.94,21.12,11.1,14.8,19.16,19.82,52.18,11.94,78.52-1.17,3.9-4.68,6.52-8.75,6.52Z"/>
        <path class="cls-3" d="M92.52,102.31c-4.08,0-7.62-2.63-8.79-6.55-3.34-11.15-10.16-26.69-23.72-37.47-19.41-15.43-16.92-30.21-14.95-35.85,3.4-9.73,12.7-16.27,23.15-16.27,8.09,0,15.59,3.94,21.12,11.1,14.8,19.16,19.82,52.18,11.94,78.52-1.17,3.9-4.68,6.52-8.75,6.52Z"/>
        <path class="cls-6" d="M91.96,101.75c-4.08,0-7.62-2.63-8.79-6.55-3.34-11.15-10.16-26.69-23.72-37.47-19.41-15.43-16.92-30.21-14.95-35.85,3.4-9.73,12.7-16.27,23.15-16.27,8.09,0,15.59,3.94,21.12,11.1,14.8,19.16,19.82,52.18,11.94,78.52-1.17,3.9-4.68,6.52-8.75,6.52Z"/>
      </g>
      <path class="cls-2" d="M91.96,101.75c-4.08,0-7.62-2.63-8.79-6.55-3.34-11.15-10.16-26.69-23.72-37.47-19.41-15.43-16.92-30.21-14.95-35.85,3.4-9.73,12.7-16.27,23.15-16.27,8.09,0,15.59,3.94,21.12,11.1,14.8,19.16,19.82,52.18,11.94,78.52-1.17,3.9-4.68,6.52-8.75,6.52Z"/>
      <g>
        <path class="cls-4" d="M94.5,92.78c-1.01,3.38-5.79,3.35-6.8-.03-3.31-11.06-10.58-28.31-25.6-40.25-34.55-27.47,2.65-57.47,21.39-33.21,14.55,18.83,17.92,50.39,11.01,73.49Z"/>
        <path class="cls-4" d="M94.78,93.06c-1.01,3.38-5.79,3.35-6.8-.03-3.31-11.06-10.58-28.31-25.6-40.25-34.55-27.47,2.65-57.47,21.39-33.21,14.55,18.83,17.92,50.39,11.01,73.49Z"/>
        <path class="cls-4" d="M95.06,93.34c-1.01,3.38-5.79,3.35-6.8-.03-3.31-11.06-10.58-28.31-25.6-40.25-34.55-27.47,2.65-57.47,21.39-33.21,14.55,18.83,17.92,50.39,11.01,73.49Z"/>
        <path class="cls-4" d="M95.34,93.62c-1.01,3.38-5.79,3.35-6.8-.03-3.31-11.06-10.58-28.31-25.6-40.25-34.55-27.47,2.65-57.47,21.39-33.21,14.55,18.83,17.92,50.39,11.01,73.49Z"/>
      </g>
      <path class="cls-16" d="M96.18,92.78c-1.01,3.38-5.79,3.35-6.8-.03-3.31-11.06-10.58-28.31-25.6-40.25-34.55-27.47,2.65-57.47,21.39-33.21,14.55,18.83,17.92,50.39,11.01,73.49Z"/>
    </g>
  </g>
</svg>