<?xml version="1.0" encoding="UTF-8"?>
<svg id="Layer_2" data-name="Layer 2" xmlns="http://www.w3.org/2000/svg" xmlns:xlink="http://www.w3.org/1999/xlink" viewBox="0 0 177.12 127.25">
  <defs>
    <style>
      .cls-1 {
        fill: url(#New_Gradient_Swatch-13);
      }

      .cls-2 {
        fill: #af256e;
      }

      .cls-3 {
        fill: url(#New_Gradient_Swatch-17);
      }

      .cls-4 {
        fill: #fff;
      }

      .cls-5 {
        fill: url(#New_Gradient_Swatch-7);
      }

      .cls-6 {
        fill: url(#New_Gradient_Swatch-18);
      }

      .cls-7 {
        fill: url(#New_Gradient_Swatch-6);
      }

      .cls-8 {
        fill: url(#New_Gradient_Swatch);
      }

      .cls-9 {
        fill: url(#New_Gradient_Swatch-5);
      }

      .cls-10 {
        fill: url(#New_Gradient_Swatch-16);
      }

      .cls-11 {
        fill: url(#New_Gradient_Swatch-8);
      }

      .cls-12 {
        fill: url(#New_Gradient_Swatch-4);
      }

      .cls-13 {
        fill: #fec13a;
      }

      .cls-14 {
        fill: url(#New_Gradient_Swatch-3);
      }

      .cls-15 {
        fill: url(#New_Gradient_Swatch-14);
      }

      .cls-16 {
        fill: url(#New_Gradient_Swatch-10);
      }

      .cls-17 {
        fill: url(#New_Gradient_Swatch-12);
      }

      .cls-18 {
        fill: url(#New_Gradient_Swatch-9);
      }

      .cls-19 {
        fill: url(#New_Gradient_Swatch-15);
      }

      .cls-20 {
        fill: url(#New_Gradient_Swatch-11);
      }

      .cls-21 {
        fill: url(#New_Gradient_Swatch-2);
      }
    </style>
    <linearGradient id="New_Gradient_Swatch" data-name="New Gradient Swatch" x1="-23.03" y1="-219.84" x2="-23.03" y2="-291.11" gradientTransform="translate(1.52 110.19) rotate(67.26) scale(.57 .58)" gradientUnits="userSpaceOnUse">
      <stop offset="0" stop-color="#fdba4d"/>
      <stop offset=".43" stop-color="#ef9463"/>
      <stop offset="1" stop-color="#dc5d85"/>
    </linearGradient>
    <linearGradient id="New_Gradient_Swatch-2" data-name="New Gradient Swatch" x1="-24.32" y1="-219.32" x2="-24.32" y2="-290.6" xlink:href="#New_Gradient_Swatch"/>
    <linearGradient id="New_Gradient_Swatch-3" data-name="New Gradient Swatch" x1="-25.61" y1="-218.81" x2="-25.61" y2="-290.08" xlink:href="#New_Gradient_Swatch"/>
    <linearGradient id="New_Gradient_Swatch-4" data-name="New Gradient Swatch" x1="-26.9" y1="-218.29" x2="-26.9" y2="-289.57" xlink:href="#New_Gradient_Swatch"/>
    <linearGradient id="New_Gradient_Swatch-5" data-name="New Gradient Swatch" x1="-28.19" y1="-217.78" x2="-28.19" y2="-289.05" xlink:href="#New_Gradient_Swatch"/>
    <linearGradient id="New_Gradient_Swatch-6" data-name="New Gradient Swatch" x1="-29.47" y1="-217.26" x2="-29.47" y2="-288.54" xlink:href="#New_Gradient_Swatch"/>
    <linearGradient id="New_Gradient_Swatch-7" data-name="New Gradient Swatch" x1="-30.76" y1="-216.75" x2="-30.76" y2="-288.02" xlink:href="#New_Gradient_Swatch"/>
    <linearGradient id="New_Gradient_Swatch-8" data-name="New Gradient Swatch" x1="-32.05" y1="-216.23" x2="-32.05" y2="-287.51" xlink:href="#New_Gradient_Swatch"/>
    <linearGradient id="New_Gradient_Swatch-9" data-name="New Gradient Swatch" x1="-33.34" y1="-215.71" x2="-33.34" y2="-286.99" xlink:href="#New_Gradient_Swatch"/>
    <linearGradient id="New_Gradient_Swatch-10" data-name="New Gradient Swatch" x1="13.55" y1="656.76" x2="13.55" y2="591.89" gradientTransform="translate(-555.84 142.75) rotate(82.14) scale(.8 -.98)" xlink:href="#New_Gradient_Swatch"/>
    <linearGradient id="New_Gradient_Swatch-11" data-name="New Gradient Swatch" x1="12.75" y1="656.28" x2="12.75" y2="591.4" gradientTransform="translate(-555.84 142.75) rotate(82.14) scale(.8 -.98)" xlink:href="#New_Gradient_Swatch"/>
    <linearGradient id="New_Gradient_Swatch-12" data-name="New Gradient Swatch" x1="11.96" y1="655.79" x2="11.96" y2="590.91" gradientTransform="translate(-555.84 142.75) rotate(82.14) scale(.8 -.98)" xlink:href="#New_Gradient_Swatch"/>
    <linearGradient id="New_Gradient_Swatch-13" data-name="New Gradient Swatch" x1="11.16" y1="655.3" x2="11.16" y2="590.43" gradientTransform="translate(-555.84 142.75) rotate(82.14) scale(.8 -.98)" xlink:href="#New_Gradient_Swatch"/>
    <linearGradient id="New_Gradient_Swatch-14" data-name="New Gradient Swatch" x1="10.37" y1="654.82" x2="10.37" y2="589.94" gradientTransform="translate(-555.84 142.75) rotate(82.14) scale(.8 -.98)" xlink:href="#New_Gradient_Swatch"/>
    <linearGradient id="New_Gradient_Swatch-15" data-name="New Gradient Swatch" x1="9.57" y1="654.33" x2="9.57" y2="589.45" gradientTransform="translate(-555.84 142.75) rotate(82.14) scale(.8 -.98)" xlink:href="#New_Gradient_Swatch"/>
    <linearGradient id="New_Gradient_Swatch-16" data-name="New Gradient Swatch" x1="8.78" y1="653.84" x2="8.78" y2="588.97" gradientTransform="translate(-555.84 142.75) rotate(82.14) scale(.8 -.98)" xlink:href="#New_Gradient_Swatch"/>
    <linearGradient id="New_Gradient_Swatch-17" data-name="New Gradient Swatch" x1="7.98" y1="653.36" x2="7.98" y2="588.48" gradientTransform="translate(-555.84 142.75) rotate(82.14) scale(.8 -.98)" xlink:href="#New_Gradient_Swatch"/>
    <linearGradient id="New_Gradient_Swatch-18" data-name="New Gradient Swatch" x1="7.19" y1="652.87" x2="7.19" y2="587.99" gradientTransform="translate(-555.84 142.75) rotate(82.14) scale(.8 -.98)" xlink:href="#New_Gradient_Swatch"/>
  </defs>
  <g id="addYourDesign">
    <g>
      <path class="cls-4" d="M148.3,78.39c-4.73,0-9.44-1.11-13.97-3.31-19.38-9.37-35.39-32.36-38.94-55.89-.72-4.8,.67-9.66,3.83-13.33,3.21-3.72,7.86-5.86,12.78-5.86,4.61,0,9.07,1.95,12.21,5.34,4.02,4.33,12.37,11.93,23.19,14.24,23.89,5.09,30.86,21.13,29.58,33.32-1.53,14.53-13.86,25.49-28.68,25.49Z"/>
      <g>
        <path class="cls-8" d="M149.98,71.66c-3.46,0-6.92-.83-10.31-2.47-16.76-8.1-31.18-28.95-34.29-49.58-.36-2.38,.33-4.78,1.89-6.58,1.61-1.87,3.94-2.94,6.41-2.94,2.32,0,4.46,.94,6.05,2.65,5.73,6.17,15.17,14.09,27.61,16.74,18.4,3.92,23.93,15.08,22.97,24.22-1.06,10.07-9.98,17.96-20.31,17.96Z"/>
        <path class="cls-21" d="M149.42,71.1c-3.46,0-6.92-.83-10.31-2.47-16.76-8.1-31.18-28.95-34.29-49.58-.36-2.38,.33-4.78,1.89-6.58,1.61-1.87,3.94-2.94,6.41-2.94,2.32,0,4.46,.94,6.05,2.65,5.73,6.17,15.17,14.09,27.61,16.74,18.4,3.92,23.93,15.08,22.97,24.22-1.06,10.07-9.98,17.96-20.31,17.96Z"/>
        <path class="cls-14" d="M148.86,70.54c-3.46,0-6.92-.83-10.31-2.47-16.76-8.1-31.18-28.95-34.29-49.58-.36-2.38,.33-4.78,1.89-6.58,1.61-1.87,3.94-2.94,6.41-2.94,2.32,0,4.46,.94,6.05,2.65,5.73,6.17,15.17,14.09,27.61,16.74,18.4,3.92,23.93,15.08,22.97,24.22-1.06,10.07-9.98,17.96-20.31,17.96Z"/>
        <path class="cls-12" d="M148.3,69.98c-3.46,0-6.92-.83-10.31-2.47-16.76-8.1-31.18-28.95-34.29-49.58-.36-2.38,.33-4.78,1.89-6.58,1.61-1.87,3.94-2.94,6.41-2.94,2.32,0,4.46,.94,6.05,2.65,5.73,6.17,15.17,14.09,27.61,16.74,18.4,3.92,23.93,15.08,22.97,24.22-1.06,10.07-9.98,17.96-20.31,17.96Z"/>
        <path class="cls-9" d="M147.74,69.42c-3.46,0-6.92-.83-10.31-2.47-16.76-8.1-31.18-28.95-34.29-49.58-.36-2.38,.33-4.78,1.89-6.58,1.61-1.87,3.94-2.94,6.41-2.94,2.32,0,4.46,.94,6.05,2.65,5.73,6.17,15.17,14.09,27.61,16.74,18.4,3.92,23.93,15.08,22.97,24.22-1.06,10.07-9.98,17.96-20.31,17.96Z"/>
        <path class="cls-7" d="M147.18,68.86c-3.46,0-6.92-.83-10.31-2.47-16.76-8.1-31.18-28.95-34.29-49.58-.36-2.38,.33-4.78,1.89-6.58,1.61-1.87,3.94-2.94,6.41-2.94,2.32,0,4.46,.94,6.05,2.65,5.73,6.17,15.17,14.09,27.61,16.74,18.4,3.92,23.93,15.08,22.97,24.22-1.06,10.07-9.98,17.96-20.31,17.96Z"/>
        <path class="cls-5" d="M146.62,68.3c-3.46,0-6.92-.83-10.31-2.47-16.76-8.1-31.18-28.95-34.29-49.58-.36-2.38,.33-4.78,1.89-6.58,1.61-1.87,3.94-2.94,6.41-2.94,2.32,0,4.46,.94,6.05,2.65,5.73,6.17,15.17,14.09,27.61,16.74,18.4,3.92,23.93,15.08,22.97,24.22-1.06,10.07-9.98,17.96-20.31,17.96Z"/>
        <path class="cls-11" d="M146.06,67.73c-3.46,0-6.92-.83-10.31-2.47-16.76-8.1-31.18-28.95-34.29-49.58-.36-2.38,.33-4.78,1.89-6.58,1.61-1.87,3.94-2.94,6.41-2.94,2.32,0,4.46,.94,6.05,2.65,5.73,6.17,15.17,14.09,27.61,16.74,18.4,3.92,23.93,15.08,22.97,24.22-1.06,10.07-9.98,17.96-20.31,17.96Z"/>
        <path class="cls-18" d="M145.5,67.17c-3.46,0-6.92-.83-10.31-2.47-16.76-8.1-31.18-28.95-34.29-49.58-.36-2.38,.33-4.78,1.89-6.58,1.61-1.87,3.94-2.94,6.41-2.94,2.32,0,4.46,.94,6.05,2.65,5.73,6.17,15.17,14.09,27.61,16.74,18.4,3.92,23.93,15.08,22.97,24.22-1.06,10.07-9.98,17.96-20.31,17.96Z"/>
      </g>
      <path class="cls-2" d="M145.5,67.17c-3.46,0-6.92-.83-10.31-2.47-16.76-8.1-31.18-28.95-34.29-49.58-.36-2.38,.33-4.78,1.89-6.58,1.61-1.87,3.94-2.94,6.41-2.94,2.32,0,4.46,.94,6.05,2.65,5.73,6.17,15.17,14.09,27.61,16.74,18.4,3.92,23.93,15.08,22.97,24.22-1.06,10.07-9.98,17.96-20.31,17.96Z"/>
      <g>
        <path class="cls-4" d="M105.6,13.45c-.39-2.59,2.9-4.14,4.69-2.22,5.83,6.28,16.37,15.39,30.55,18.41,32.6,6.94,16.64,39.18-4.05,29.18-16.06-7.77-28.52-27.7-31.18-45.37Z"/>
        <path class="cls-4" d="M105.88,13.73c-.39-2.59,2.9-4.14,4.69-2.22,5.83,6.28,16.37,15.39,30.55,18.41,32.6,6.94,16.64,39.18-4.05,29.18-16.06-7.77-28.52-27.7-31.18-45.37Z"/>
        <path class="cls-4" d="M106.16,14.01c-.39-2.59,2.9-4.14,4.69-2.22,5.83,6.28,16.37,15.39,30.55,18.41,32.6,6.94,16.64,39.18-4.05,29.18-16.06-7.77-28.52-27.7-31.18-45.37Z"/>
        <path class="cls-4" d="M106.44,14.29c-.39-2.59,2.9-4.14,4.69-2.22,5.83,6.28,16.37,15.39,30.55,18.41,32.6,6.94,16.64,39.18-4.05,29.18-16.06-7.77-28.52-27.7-31.18-45.37Z"/>
      </g>
      <path class="cls-13" d="M107.28,13.45c-.39-2.59,2.9-4.14,4.69-2.22,5.83,6.28,16.37,15.39,30.55,18.41,32.6,6.94,16.64,39.18-4.05,29.18-16.06-7.77-28.52-27.7-31.18-45.37Z"/>
    </g>
    <g>
      <path class="cls-4" d="M36.7,127.25c-16.42,0-30.55-9.07-35.17-22.56-2.43-7.11-5.33-25.77,20.21-45.56,14.91-11.55,21.71-26.76,24.78-37.48,2.23-7.79,9.73-13.24,18.22-13.24,7.34,0,13.73,3.97,16.68,10.35,13.49,29.2,9.16,67.84-10.28,91.88-8.54,10.56-21.09,16.61-34.44,16.61h0Z"/>
      <g>
        <path class="cls-16" d="M38.38,120.52c-12.82,0-23.76-6.78-27.21-16.88-2.29-6.7-3.08-20.32,17.4-36.19,16.71-12.95,24.29-29.88,27.71-41.81,1.22-4.27,5.3-7.14,10.13-7.14,4.02,0,7.49,2.1,9.05,5.47,12.21,26.45,8.35,61.38-9.18,83.06-6.93,8.57-17.1,13.49-27.9,13.49h0Z"/>
        <path class="cls-20" d="M37.82,119.96c-12.82,0-23.76-6.78-27.21-16.88-2.29-6.7-3.08-20.32,17.4-36.19,16.71-12.95,24.29-29.88,27.71-41.81,1.22-4.27,5.3-7.14,10.13-7.14,4.02,0,7.49,2.1,9.05,5.47,12.21,26.45,8.35,61.38-9.18,83.06-6.93,8.57-17.1,13.49-27.9,13.49h0Z"/>
        <path class="cls-17" d="M37.26,119.4c-12.82,0-23.76-6.78-27.21-16.88-2.29-6.7-3.08-20.32,17.4-36.19,16.71-12.95,24.29-29.88,27.71-41.81,1.22-4.27,5.3-7.14,10.13-7.14,4.02,0,7.49,2.1,9.05,5.47,12.21,26.45,8.35,61.38-9.18,83.06-6.93,8.57-17.1,13.49-27.9,13.49h0Z"/>
        <path class="cls-1" d="M36.7,118.84c-12.82,0-23.76-6.78-27.21-16.88-2.29-6.7-3.08-20.32,17.4-36.19,16.71-12.95,24.29-29.88,27.71-41.81,1.22-4.27,5.3-7.14,10.13-7.14,4.02,0,7.49,2.1,9.05,5.47,12.21,26.45,8.35,61.38-9.18,83.06-6.93,8.57-17.1,13.49-27.9,13.49h0Z"/>
        <path class="cls-15" d="M36.14,118.28c-12.82,0-23.76-6.78-27.21-16.88-2.29-6.7-3.08-20.32,17.4-36.19,16.71-12.95,24.29-29.88,27.71-41.81,1.22-4.27,5.3-7.14,10.13-7.14,4.02,0,7.49,2.1,9.05,5.47,12.21,26.45,8.35,61.38-9.18,83.06-6.93,8.57-17.1,13.49-27.9,13.49h0Z"/>
        <path class="cls-19" d="M35.58,117.72c-12.82,0-23.76-6.78-27.21-16.88-2.29-6.7-3.08-20.32,17.4-36.19,16.71-12.95,24.29-29.88,27.71-41.81,1.22-4.27,5.3-7.14,10.13-7.14,4.02,0,7.49,2.1,9.05,5.47,12.21,26.45,8.35,61.38-9.18,83.06-6.93,8.57-17.1,13.49-27.9,13.49h0Z"/>
        <path class="cls-10" d="M35.02,117.15c-12.82,0-23.76-6.78-27.21-16.88-2.29-6.7-3.08-20.32,17.4-36.19,16.71-12.95,24.29-29.88,27.71-41.81,1.22-4.27,5.3-7.14,10.13-7.14,4.02,0,7.49,2.1,9.05,5.47,12.21,26.45,8.35,61.38-9.18,83.06-6.93,8.57-17.1,13.49-27.9,13.49h0Z"/>
        <path class="cls-3" d="M34.46,116.59c-12.82,0-23.76-6.78-27.21-16.88-2.29-6.7-3.08-20.32,17.4-36.19,16.71-12.95,24.29-29.88,27.71-41.81,1.22-4.27,5.3-7.14,10.13-7.14,4.02,0,7.49,2.1,9.05,5.47,12.21,26.45,8.35,61.38-9.18,83.06-6.93,8.57-17.1,13.49-27.9,13.49h0Z"/>
        <path class="cls-6" d="M33.9,116.03c-12.82,0-23.76-6.78-27.21-16.88-2.29-6.7-3.08-20.32,17.4-36.19,16.71-12.95,24.29-29.88,27.71-41.81,1.22-4.27,5.3-7.14,10.13-7.14,4.02,0,7.49,2.1,9.05,5.47,12.21,26.45,8.35,61.38-9.18,83.06-6.93,8.57-17.1,13.49-27.9,13.49h0Z"/>
      </g>
      <path class="cls-2" d="M33.9,116.03c-12.82,0-23.76-6.78-27.21-16.88-2.29-6.7-3.08-20.32,17.4-36.19,16.71-12.95,24.29-29.88,27.71-41.81,1.22-4.27,5.3-7.14,10.13-7.14,4.02,0,7.49,2.1,9.05,5.47,12.21,26.45,8.35,61.38-9.18,83.06-6.93,8.57-17.1,13.49-27.9,13.49h0Z"/>
      <g>
        <path class="cls-4" d="M65.05,20.99c-1.55-3.36-7.66-2.74-8.7,.87-3.39,11.82-11.36,30.52-29.67,44.7-42.11,32.63,7.8,58.97,29.92,31.61,17.17-21.23,19.06-54.21,8.45-77.18Z"/>
        <path class="cls-4" d="M65.33,21.27c-1.55-3.36-7.66-2.74-8.7,.87-3.39,11.82-11.36,30.52-29.67,44.7-42.11,32.63,7.8,58.97,29.92,31.61,17.17-21.23,19.06-54.21,8.45-77.18Z"/>
        <path class="cls-4" d="M65.61,21.56c-1.55-3.36-7.66-2.74-8.7,.87-3.39,11.82-11.36,30.52-29.67,44.7-42.11,32.63,7.8,58.97,29.92,31.61,17.17-21.23,19.06-54.21,8.45-77.18Z"/>
        <path class="cls-4" d="M65.89,21.84c-1.55-3.36-7.66-2.74-8.7,.87-3.39,11.82-11.36,30.52-29.67,44.7-42.11,32.63,7.8,58.97,29.92,31.61,17.17-21.23,19.06-54.21,8.45-77.18Z"/>
      </g>
      <path class="cls-13" d="M66.73,20.99c-1.55-3.36-7.66-2.74-8.7,.87-3.39,11.82-11.36,30.52-29.67,44.7-42.11,32.63,7.8,58.97,29.92,31.61,17.17-21.23,19.06-54.21,8.45-77.18Z"/>
    </g>
  </g>
</svg>