<?xml version="1.0" encoding="UTF-8"?>
<svg id="Layer_2" data-name="Layer 2" xmlns="http://www.w3.org/2000/svg" xmlns:xlink="http://www.w3.org/1999/xlink" viewBox="0 0 60.45 60.45">
  <defs>
    <style>
      .cls-1 {
        fill: url(#New_Gradient_Swatch_2-2);
      }

      .cls-2 {
        fill: #af256e;
      }

      .cls-3, .cls-4 {
        fill: #fff;
      }

      .cls-5 {
        fill: url(#New_Gradient_Swatch_2-14);
      }

      .cls-4 {
        opacity: .9;
      }

      .cls-6 {
        fill: url(#New_Gradient_Swatch_2-8);
      }

      .cls-7 {
        fill: url(#New_Gradient_Swatch_2-4);
      }

      .cls-8 {
        fill: url(#New_Gradient_Swatch_2-17);
      }

      .cls-9 {
        fill: url(#New_Gradient_Swatch_2-13);
      }

      .cls-10 {
        fill: url(#New_Gradient_Swatch_2-11);
      }

      .cls-11 {
        fill: url(#New_Gradient_Swatch_2-18);
      }

      .cls-12 {
        fill: url(#New_Gradient_Swatch_2-15);
      }

      .cls-13 {
        fill: url(#New_Gradient_Swatch_2);
      }

      .cls-14 {
        fill: url(#New_Gradient_Swatch_2-12);
      }

      .cls-15 {
        fill: url(#New_Gradient_Swatch_2-7);
      }

      .cls-16 {
        fill: url(#New_Gradient_Swatch_2-3);
      }

      .cls-17 {
        fill: url(#New_Gradient_Swatch_2-5);
      }

      .cls-18 {
        fill: url(#New_Gradient_Swatch_2-16);
      }

      .cls-19 {
        fill: url(#New_Gradient_Swatch_2-10);
      }

      .cls-20 {
        fill: #da5c84;
      }

      .cls-21 {
        fill: url(#New_Gradient_Swatch_2-6);
      }

      .cls-22 {
        fill: url(#New_Gradient_Swatch_2-9);
      }
    </style>
    <linearGradient id="New_Gradient_Swatch_2" data-name="New Gradient Swatch 2" x1="-1113.69" y1="992.07" x2="-1113.69" y2="985.01" gradientTransform="translate(-135.02 873.08) rotate(143.67) scale(.57 .58)" gradientUnits="userSpaceOnUse">
      <stop offset="0" stop-color="#fcb94d"/>
      <stop offset=".44" stop-color="#ee9363"/>
      <stop offset="1" stop-color="#db5d84"/>
    </linearGradient>
    <linearGradient id="New_Gradient_Swatch_2-2" data-name="New Gradient Swatch 2" x1="-1113.67" y1="992.24" x2="-1113.67" y2="985.18" xlink:href="#New_Gradient_Swatch_2"/>
    <linearGradient id="New_Gradient_Swatch_2-3" data-name="New Gradient Swatch 2" x1="-1113.64" y1="992.42" x2="-1113.64" y2="985.35" xlink:href="#New_Gradient_Swatch_2"/>
    <linearGradient id="New_Gradient_Swatch_2-4" data-name="New Gradient Swatch 2" x1="-1113.61" y1="992.59" x2="-1113.61" y2="985.53" xlink:href="#New_Gradient_Swatch_2"/>
    <linearGradient id="New_Gradient_Swatch_2-5" data-name="New Gradient Swatch 2" x1="-1113.59" y1="992.76" x2="-1113.59" y2="985.7" xlink:href="#New_Gradient_Swatch_2"/>
    <linearGradient id="New_Gradient_Swatch_2-6" data-name="New Gradient Swatch 2" x1="-1113.56" y1="992.93" x2="-1113.56" y2="985.87" xlink:href="#New_Gradient_Swatch_2"/>
    <linearGradient id="New_Gradient_Swatch_2-7" data-name="New Gradient Swatch 2" x1="-1113.53" y1="993.1" x2="-1113.53" y2="986.04" xlink:href="#New_Gradient_Swatch_2"/>
    <linearGradient id="New_Gradient_Swatch_2-8" data-name="New Gradient Swatch 2" x1="-1113.51" y1="993.27" x2="-1113.51" y2="986.21" xlink:href="#New_Gradient_Swatch_2"/>
    <linearGradient id="New_Gradient_Swatch_2-9" data-name="New Gradient Swatch 2" x1="-1113.48" y1="993.44" x2="-1113.48" y2="986.38" xlink:href="#New_Gradient_Swatch_2"/>
    <linearGradient id="New_Gradient_Swatch_2-10" data-name="New Gradient Swatch 2" x1="129.59" y1="337.14" x2="129.59" y2="328.85" gradientTransform="translate(134.53 289.62) rotate(179.54) scale(.8)" xlink:href="#New_Gradient_Swatch_2"/>
    <linearGradient id="New_Gradient_Swatch_2-11" data-name="New Gradient Swatch 2" x1="129.68" y1="337.24" x2="129.68" y2="328.94" gradientTransform="translate(134.53 289.62) rotate(179.54) scale(.8)" xlink:href="#New_Gradient_Swatch_2"/>
    <linearGradient id="New_Gradient_Swatch_2-12" data-name="New Gradient Swatch 2" x1="129.77" y1="337.33" x2="129.77" y2="329.03" gradientTransform="translate(134.53 289.62) rotate(179.54) scale(.8)" xlink:href="#New_Gradient_Swatch_2"/>
    <linearGradient id="New_Gradient_Swatch_2-13" data-name="New Gradient Swatch 2" x1="129.86" y1="337.42" x2="129.86" y2="329.13" gradientTransform="translate(134.53 289.62) rotate(179.54) scale(.8)" xlink:href="#New_Gradient_Swatch_2"/>
    <linearGradient id="New_Gradient_Swatch_2-14" data-name="New Gradient Swatch 2" x1="129.95" y1="337.51" x2="129.95" y2="329.22" gradientTransform="translate(134.53 289.62) rotate(179.54) scale(.8)" xlink:href="#New_Gradient_Swatch_2"/>
    <linearGradient id="New_Gradient_Swatch_2-15" data-name="New Gradient Swatch 2" x1="130.03" y1="337.6" x2="130.03" y2="329.31" gradientTransform="translate(134.53 289.62) rotate(179.54) scale(.8)" xlink:href="#New_Gradient_Swatch_2"/>
    <linearGradient id="New_Gradient_Swatch_2-16" data-name="New Gradient Swatch 2" x1="130.12" y1="337.69" x2="130.12" y2="329.4" gradientTransform="translate(134.53 289.62) rotate(179.54) scale(.8)" xlink:href="#New_Gradient_Swatch_2"/>
    <linearGradient id="New_Gradient_Swatch_2-17" data-name="New Gradient Swatch 2" x1="130.21" y1="337.78" x2="130.21" y2="329.49" gradientTransform="translate(134.53 289.62) rotate(179.54) scale(.8)" xlink:href="#New_Gradient_Swatch_2"/>
    <linearGradient id="New_Gradient_Swatch_2-18" data-name="New Gradient Swatch 2" x1="130.3" y1="337.87" x2="130.3" y2="329.58" gradientTransform="translate(134.53 289.62) rotate(179.54) scale(.8)" xlink:href="#New_Gradient_Swatch_2"/>
  </defs>
  <g id="Layer_1-2" data-name="Layer 1">
    <g>
      <path class="cls-2" d="M19.6,42.45c0-.29,0-.57,0-.85,0-.2,0-.41,0-.61,0-.12,.04-.16,.16-.16,.44,0,.87,0,1.31,0,.14,0,.17,.05,.17,.18,0,1.05,0,2.11,0,3.16,0,1,0,2,0,2.99,0,.15,.04,.21,.2,.2,.47-.01,.94,0,1.43,0v-.21c0-.94,0-1.87,0-2.81q0-.24,.24-.24c.4,0,.79,0,1.19,0h.2c0-.08,0-.14,0-.2,0-.95,0-1.91,0-2.86,0-.17-.05-.21-.21-.21-.42,0-.84,0-1.26,0-.12,0-.17-.04-.17-.16,0-.44,0-.87,0-1.31,0-.13,.04-.17,.17-.17,2.61,0,5.23,0,7.84,0,.13,0,.17,.04,.17,.17,0,.44,0,.87,0,1.31,0,.11,.03,.16,.15,.16,1,0,2,0,2.99,0,.03,0,.07,0,.12-.01v-.8c0-.21,0-.42,0-.63,0-.15,.05-.19,.19-.19,1.29,0,2.59,0,3.88,0h.82c0-.07,0-.13,.01-.19,0-.4,0-.81,0-1.21q0-.24,.24-.24c.45,0,.91,0,1.37,0,0-.06,.01-.11,.01-.16,0-.43,0-.86,0-1.29,0-.15-.05-.18-.19-.18-.43,0-.85,0-1.28,0-.13,0-.18-.04-.18-.17,0-.98,0-1.95,0-2.93,0-.15,.06-.18,.19-.18,.95,0,1.91,0,2.86,0,.07,0,.13,0,.21,0,0-.08,0-.14,0-.2,0-1.49,0-2.98,0-4.47,0-.17-.04-.23-.22-.22-.41,.01-.82,0-1.22,0-.15,0-.2,.05-.19,.2,0,.43,0,.85,0,1.28,0,.13-.04,.17-.17,.16-.44,0-.87,0-1.31,0-.13,0-.16-.04-.16-.17,0-2.07,0-4.14,0-6.21,0-.15,.06-.16,.19-.16,.95,0,1.91,0,2.86,0,.07,0,.13,0,.21,0,0-.05,.02-.08,.02-.11,0-.45,0-.91,0-1.36,0-.12-.04-.16-.16-.16-.41,0-.82,0-1.22,0q-.25,0-.25-.24c0-.41,0-.82,0-1.22,0-.13-.04-.17-.17-.17-.43,0-.85,0-1.28,0-.15,0-.19,.06-.19,.2,0,.42,0,.84,0,1.26,0,.13-.03,.18-.17,.18-.43,0-.86,0-1.29,0-.15,0-.18-.06-.18-.19,0-.96,0-1.92,0-2.88,0-.17-.05-.21-.21-.21-.4,.01-.81,.01-1.21,0-.18,0-.22,.06-.22,.23,0,.94,0,1.88,0,2.82,0,.17-.03,.22-.21,.22-2.04,0-4.08,0-6.12,0-.17,0-.21-.05-.21-.21,.01-.41,0-.82,0-1.22,0-.16-.04-.2-.2-.2-1.49,0-2.98,0-4.47,0q-.23,0-.23-.24c0-.94,0-1.88,0-2.82,0-.18,.05-.22,.22-.22,.4,.01,.81,0,1.21,0h.2c0-.07,.01-.13,.01-.18,0-.96,0-1.93,0-2.89,0-.15-.05-.19-.19-.19-.41,0-.83,0-1.24,0-.15,0-.2,.04-.2,.19,0,.43,0,.85,0,1.28,0,.12-.04,.17-.16,.17-.43,0-.86,0-1.29,0-.16,0-.19-.06-.19-.2,0-1.3,0-2.61,0-3.91,0-.75,0-1.5,0-2.25,0-.14,.04-.19,.18-.19,.48,0,.95,0,1.44,0,0-.07,0-.13,0-.19,0-.43,0-.85,0-1.28,0-.13,.04-.17,.17-.17,.42,0,.84,0,1.26,0,.06,0,.12,0,.19,0,0-.05,.02-.09,.02-.13,0-.45,0-.9,0-1.34,0-.12-.04-.16-.16-.16-.43,0-.86,0-1.29,0-.13,0-.19-.03-.19-.18,0-.43,0-.86,0-1.29,0-.14,.05-.17,.18-.17,.48,0,.95,0,1.46,0,0-.08,0-.14,0-.21,0-.95,0-1.91,0-2.86,0-.15,.04-.21,.2-.2,.43,.01,.85,0,1.28,0,.12,0,.17,.04,.17,.16,0,.98,0,1.96,0,2.94,0,.14-.06,.17-.18,.17-.43,0-.85,0-1.28,0-.13,0-.18,.04-.18,.17,0,.43,0,.86,0,1.29,0,.09,0,.17,.13,.17,1.02,0,2.04,0,3.06,0,.02,0,.03,0,.07-.02,0-.12,0-.25,0-.38,0-.35,0-.7,0-1.05,0-.13,.04-.18,.17-.18,.42,0,.84,0,1.26,0,.06,0,.12,0,.2,0,0-.27,0-.52,0-.77,0-.22,0-.44,0-.66,0-.16-.06-.19-.2-.19-.42,0-.84,0-1.26,0-.14,0-.19-.04-.18-.18,0-.43,0-.86,0-1.29,0-.13,.04-.17,.17-.17,2.07,0,4.14,0,6.21,0,.13,0,.17,.04,.17,.17,0,.44,0,.87,0,1.31,0,.13-.04,.17-.17,.17-.43,0-.85,0-1.28,0-.15,0-.2,.05-.19,.2,0,.43,0,.85,0,1.28,0,.1,.01,.16,.14,.16,1.02,0,2.03,0,3.05,0,.02,0,.03,0,.08-.01v-.19c0-.95,0-1.89,0-2.84,0-.17,.04-.23,.21-.22,.95,0,1.89,0,2.84,0q.22,0,.22,.23c0,.41,0,.83,0,1.24,0,.13,.04,.17,.17,.17,.48,0,.96,0,1.46,0,0-.19,0-.36,0-.52,0-.32,0-.64,0-.95,0-.12,.04-.16,.16-.16,.44,0,.88,0,1.33,0,.14,0,.16,.06,.16,.17,0,.43,0,.85,0,1.28,0,.15,.05,.19,.2,.19,.47,0,.94,0,1.43,0,0-.07,0-.13,0-.19,0-.43,0-.85,0-1.28,0-.13,.04-.17,.17-.16,.44,0,.87,0,1.31,0,.13,0,.17,.04,.16,.17,0,.98,0,1.96,0,2.94,0,.13-.04,.17-.17,.16-.43,0-.85,0-1.28,0-.15,0-.2,.05-.19,.2,0,.96,0,1.92,0,2.88,0,.16-.05,.2-.2,.2-.41,0-.83,0-1.24,0-.15,0-.2,.05-.19,.2,0,.41,0,.83,0,1.24,0,.15,.04,.2,.19,.19,.96,0,1.92,0,2.88,0,.17,0,.21,.05,.21,.21,0,1.49,0,2.97,0,4.46q0,.23,.23,.23c1.49,0,2.97,0,4.46,0,.18,0,.22,.05,.22,.22-.01,.41-.01,.82,0,1.22,0,.16-.05,.2-.2,.2-.41,0-.82,0-1.22,0-.15,0-.21,.04-.21,.2,0,.42,0,.84,0,1.26,0,.13,.04,.18,.17,.18,.43,0,.85,0,1.28,0,.14,0,.19,.03,.19,.18,0,.43,0,.86,0,1.29,0,.14-.05,.17-.18,.17-.42,0-.84,0-1.26,0-.14,0-.2,.04-.2,.19,0,.96,0,1.93,0,2.89,0,.14,.04,.19,.18,.18,.43,0,.85,0,1.28,0,.05,0,.1,0,.17-.01,0-.18,0-.34,0-.51,0-.32,0-.64,0-.95,0-.12,.04-.16,.16-.16,.44,0,.87,0,1.31,0,.13,0,.18,.04,.18,.17,0,.43,0,.85,0,1.28,0,.15,.05,.19,.2,.19,.47,0,.94,0,1.43,0,0-.07,0-.13,0-.19,0-.43,0-.85,0-1.28,0-.13,.04-.17,.17-.16,.42,0,.84,0,1.26,0,.06,0,.12,0,.21,0,0-.16,0-.3,0-.44,0-.35,0-.69,0-1.04,0-.12-.04-.16-.16-.16-.41,0-.83,0-1.24,0q-.24,0-.24-.23c0-1.49,0-2.97,0-4.46,0-.17,.04-.22,.21-.22,1.5,0,2.99,0,4.49,0,.15,0,.21,.03,.21,.2-.01,.41-.01,.83,0,1.24,0,.17-.06,.21-.21,.21-.94,0-1.88,0-2.82,0-.23,0-.23,0-.23,.22,0,.41,0,.82,0,1.22,0,.14,.04,.18,.18,.18,.96,0,1.93,0,2.89,0,.15,0,.2,.04,.2,.19,0,.41-.01,.83,0,1.24,0,.16-.04,.22-.21,.21-.41-.01-.83,0-1.24,0-.14,0-.19,.04-.19,.18,0,.43,0,.86,0,1.29,0,.12,.04,.16,.16,.16,.44,0,.87,0,1.31,0,.12,0,.17,.03,.17,.16,0,.44,0,.88,0,1.33,0,.11-.03,.15-.15,.15-.45,0-.9,0-1.34,0-.13,0-.15-.05-.15-.16,0-.43,0-.86,0-1.29,0-.13-.03-.18-.17-.18-.43,0-.86,0-1.29,0-.12,0-.17,.04-.17,.17,0,.98,0,1.96,0,2.94,0,.14,.06,.16,.17,.16,.96,0,1.93,0,2.89,0,.15,0,.21,.03,.21,.2-.01,.41-.01,.83,0,1.24,0,.17-.06,.21-.21,.21-.39-.01-.77,0-1.16,0q-.27,0-.27,.26c0,.94,0,1.87,0,2.81,0,.15-.03,.21-.2,.21-.41-.01-.83,0-1.24,0-.14,0-.2,.04-.2,.19,0,.42,0,.84,0,1.26,0,.14,.05,.18,.18,.18,.96,0,1.93,0,2.89,0,.15,0,.2,.04,.2,.19,0,.42,0,.84,0,1.26,0,.15-.04,.2-.19,.2-.42,0-.84,0-1.26,0-.14,0-.19,.04-.19,.18,0,.43,0,.85,0,1.28,0,.14,.04,.17,.18,.17,.43,0,.86,0,1.29,0,.12,0,.17,.04,.17,.16,0,.44,0,.88,0,1.33,0,.11-.03,.15-.15,.15-.45,0-.9,0-1.34,0-.13,0-.15-.05-.15-.16,0-.43,0-.86,0-1.29,0-.13-.03-.18-.17-.18-.43,0-.86,0-1.29,0-.12,0-.17,.04-.17,.17,0,.98,0,1.96,0,2.94,0,.14,.06,.16,.18,.16,.96,0,1.93,0,2.89,0,.15,0,.21,.04,.2,.2,0,1.5,0,3.01,0,4.51,0,.17-.06,.21-.22,.2-1.48,0-2.96,0-4.44,0q-.25,0-.25,.24c0,.4,0,.79,0,1.19,0,.16,.05,.2,.2,.2,1.49,0,2.98,0,4.47,0q.23,0,.23,.22c0,.4,0,.79,0,1.19q0,.23-.22,.23c-1.47,0-2.95,0-4.42,0q-.26,0-.26,.25c0,.94,0,1.88,0,2.82,0,.15-.04,.2-.19,.2-.42,0-.84,0-1.26,0-.14,0-.19,.04-.19,.19,0,.43,0,.85,0,1.28,0,.14,.05,.17,.18,.17,.43,0,.86,0,1.29,0,.13,0,.17,.04,.17,.17,0,.44,0,.87,0,1.31,0,.12-.04,.17-.16,.17-.43,0-.85,0-1.28,0-.15,0-.2,.05-.2,.2,0,1.51,0,3.02,0,4.53,0,.14,.05,.18,.19,.18,.43,0,.85,0,1.28,0,.13,0,.18,.04,.18,.17,0,.44,0,.87,0,1.31,0,.12-.04,.16-.16,.16-.44,0-.87,0-1.31,0-.13,0-.18-.04-.18-.17,0-.41,0-.83,0-1.24q0-.22-.23-.22c-.41,0-.83,0-1.24,0-.13,0-.17-.04-.17-.17,0-.43,0-.86,0-1.29,0-.13-.03-.18-.17-.18-.43,0-.86,0-1.29,0-.12,0-.17,.05-.17,.17,0,.43,0,.86,0,1.29,0,.14-.04,.18-.18,.17-.43,0-.85,0-1.28,0-.14,0-.19,.04-.19,.19,0,.43,0,.85,0,1.28,0,.14,.05,.17,.18,.17,.96,0,1.93,0,2.89,0,.16,0,.21,.04,.2,.2-.01,.42,0,.84,0,1.26,0,.12,.03,.18,.17,.18,2.07,0,4.14,0,6.21,0,.04,0,.09,0,.15-.01v-.21c0-.95,0-1.91,0-2.86,0-.15,.05-.19,.19-.19,.43,0,.85,0,1.28,0,.14,0,.17,.04,.17,.18,0,1.52,0,3.04,0,4.56,0,.14-.04,.17-.18,.17-2.68,0-5.36,0-8.05,0-1.55,0-3.1,0-4.64,0-.17,0-.21-.05-.21-.21,.01-.41,0-.82,0-1.22,0-.15-.04-.21-.2-.2-.43,.01-.85,0-1.28,0-.13,0-.17-.04-.17-.17,0-.41,0-.83,0-1.24,0-.23,0-.23-.22-.23-.95,0-1.89,0-2.84,0-.17,0-.21-.05-.21-.21,.01-.4,0-.81,0-1.21,0-.17-.04-.22-.22-.22-.95,0-1.89,0-2.84,0-.18,0-.22-.05-.22-.22,.01-.41,0-.83,0-1.24,0-.14,.05-.18,.19-.18,.41,0,.83,0,1.24,0,.06,0,.12,0,.19,0,0-.05,.02-.08,.02-.11,0-.45,0-.91,0-1.36,0-.12-.04-.16-.16-.16-.43,0-.86,0-1.29,0-.14,0-.19-.03-.19-.18,0-.43,0-.85,0-1.28,0-.16,.05-.19,.2-.19,.47,0,.94,0,1.44,0,0-.08,0-.14,0-.21,0-.42,0-.84,0-1.26,0-.12,.04-.17,.17-.17,.44,0,.87,0,1.31,0,.13,0,.17,.04,.17,.17,0,.43,0,.85,0,1.28,0,.16,.05,.2,.2,.2,.42,0,.84,0,1.26,0,.13,0,.18,.04,.18,.17,0,.43,0,.85,0,1.28,0,.13,.03,.19,.18,.19,.48,0,.95,0,1.44,0,0-.07,.01-.12,.01-.18,0-.96,0-1.93,0-2.89,0-.15-.04-.2-.19-.19-.43,0-.85,0-1.28,0-.14,0-.18-.04-.17-.18,0-.42,0-.84,0-1.26,0-.15-.04-.2-.2-.2-.95,0-1.91,0-2.86,0-.18,0-.22-.05-.22-.22,.01-.41,0-.83,0-1.24,0-.14,.05-.18,.19-.18,.41,0,.83,0,1.24,0h.21c0-.08,0-.15,0-.21,0-.41,0-.83,0-1.24,0-.14-.04-.17-.18-.17-.96,0-1.93,0-2.89,0-.16,0-.2,.06-.2,.21,0,1.49,0,2.97,0,4.46q0,.23-.23,.23c-.38,0-.76,0-1.14,0q-.26,0-.26,.26c0,.4,0,.79,0,1.19,0,.15-.05,.19-.2,.19-.42,0-.84,0-1.26,0-.14,0-.19,.05-.18,.19,0,.42,0,.84,0,1.26,0,.16,.06,.19,.2,.19,.43,0,.85,0,1.28,0,.13,0,.17,.04,.16,.17,0,.98,0,1.96,0,2.94,0,.13-.04,.17-.17,.16-.43,0-.85,0-1.28,0-.15,0-.2,.05-.19,.2,0,.41,0,.83,0,1.24,0,.15,.04,.2,.19,.19,.42-.01,.84,0,1.26,0,.13,0,.19,.03,.19,.18,0,.98,0,1.95,0,2.93,0,.14-.05,.17-.18,.17-1.52,0-3.04,0-4.56,0-.14,0-.18-.05-.17-.18,0-.43,0-.86,0-1.29,0-.14,.05-.17,.18-.17,.95,0,1.91,0,2.86,0,.07,0,.13,0,.22,0,0-.05,.02-.1,.02-.14,0-.44,0-.88,0-1.33,0-.13-.04-.17-.17-.17-.42,0-.84,0-1.26,0-.16,0-.22-.04-.21-.21,.01-.42,0-.84,0-1.26,0-.14-.04-.17-.18-.17-.97,0-1.94,0-2.91,0-.15,0-.18,.05-.18,.19,0,.96,0,1.92,0,2.88,0,.17-.05,.21-.21,.21-.4-.01-.81,0-1.21,0-.18,0-.22,.06-.22,.23,.01,.41,0,.82,0,1.22,0,.13-.03,.19-.18,.19-1.52,0-3.04,0-4.56,0-.14,0-.17-.05-.17-.18,0-.43,0-.86,0-1.29,0-.14,.05-.17,.18-.17,.95,0,1.91,0,2.86,0,.07,0,.13,0,.22,0,0-.06,.01-.11,.01-.16,0-.43,0-.86,0-1.29,0-.14-.05-.18-.19-.18-.42,0-.84,0-1.26,0-.15,0-.2-.04-.2-.19,0-.42,0-.84,0-1.26,0-.15-.05-.19-.19-.19-.42,0-.84,0-1.26,0-.14,0-.19-.04-.19-.18,0-.43,0-.85,0-1.28,0-.15-.05-.18-.19-.18-.43,0-.85,0-1.28,0-.13,0-.18-.04-.18-.17,0-.43,0-.85,0-1.28,0-.15-.05-.19-.2-.19-.41,0-.83,0-1.24,0-.15,0-.2,.04-.2,.19,0,.41,0,.83,0,1.24,0,.15-.03,.21-.2,.21-.4-.01-.81,0-1.21,0-.23,0-.23,0-.23,.22,0,.41,0,.83,0,1.24,0,.12-.03,.17-.16,.17-.44,0-.87,0-1.31,0-.14,0-.17-.05-.17-.18,0-.43,0-.85,0-1.28,0-.13-.03-.18-.17-.18-.98,0-1.95,0-2.93,0-.12,0-.17,.04-.17,.17,0,.44,0,.87,0,1.31,0,.12,.04,.16,.16,.15,.44,0,.87,0,1.31,0,.12,0,.17,.04,.17,.16,0,.43,0,.86,0,1.29,0,.14,.05,.18,.19,.18,.43,0,.85,0,1.28,0,.13,0,.18,.04,.18,.17,0,.43,0,.86,0,1.29,0,.13-.04,.18-.17,.18-.43,0-.85,0-1.28,0-.14,0-.19,.04-.19,.19,0,.43,0,.85,0,1.28,0,.13-.04,.18-.17,.18-.43,0-.85,0-1.28,0-.15,0-.19-.04-.19-.19,0-.95,0-1.91,0-2.86q0-.22-.23-.22c-.41,0-.83,0-1.24,0-.13,0-.17-.04-.17-.17,0-1.53,0-3.05,0-4.58,0-.13,.04-.17,.17-.17,.45,0,.91,0,1.36,0,.03,0,.05,0,.1-.01,0-.06,.01-.11,.01-.17,0-.96,0-1.93,0-2.89,0-.15-.04-.2-.19-.19-.43,0-.85,0-1.28,0-.14,0-.18-.05-.17-.18,0-.42,0-.84,0-1.26,0-.15-.04-.2-.2-.2-2.09,0-4.17,0-6.26,0-1.05,0-2.11,0-3.16,0-.14,0-.18-.05-.18-.19,0-1.5,0-3.01,0-4.51,0-.16-.04-.22-.21-.21-.41,.01-.82,.01-1.22,0-.16,0-.2,.06-.2,.21,0,1.49,0,2.98,0,4.47q0,.22-.23,.22c-.41,0-.82,0-1.22,0-.13,0-.19-.03-.19-.18,0-2.06,0-4.13,0-6.19,0-.14,.05-.17,.18-.17,.48,0,.95,0,1.46,0,0-.08,0-.15,0-.22,0-1.49,0-2.98,0-4.47,0-.15,.04-.21,.2-.2,.42,.01,.84,0,1.26,0,.14,0,.19,.04,.19,.18,0,.43,0,.86,0,1.29,0,.09,0,.17,.13,.16,.47,0,.94,0,1.41,0,.02,0,.04,0,.08-.01,0-.06,0-.12,0-.19,0-1.49,0-2.98,0-4.47,0-.17-.03-.23-.21-.22-.95,0-1.89,0-2.84,0-.16,0-.22,.05-.21,.21,.01,.42,0,.84,0,1.26,0,.12-.03,.17-.16,.17-.44,0-.88,0-1.33,0-.11,0-.15-.03-.15-.15,0-.45,0-.9,0-1.34,0-.13,.05-.15,.16-.15,.42,0,.84,0,1.26,0h.21v-.21c0-.95,0-1.91,0-2.86,0-.16,.04-.2,.2-.2,.47,0,.94,0,1.43,0,0-.08,0-.15,0-.21,0-.95,0-1.91,0-2.86,0-.16,.05-.2,.2-.2,.41,0,.82,0,1.22,0h.21c0-.18,0-.34,0-.5,0-.32,0-.64,0-.95,0-.13,.03-.18,.17-.18,.43,0,.86,0,1.29,0,.15,0,.18,.06,.18,.19,0,.95,0,1.91,0,2.86,0,.22,0,.22,.22,.22,.46,0,.92,0,1.4,0v-.23c0-1.49,0-2.97,0-4.46,0-.17,.04-.22,.22-.22,.94,0,1.88,0,2.82,0h.22c0-.07,0-.14,0-.2,0-.41,0-.82,0-1.22,0-.16-.04-.21-.21-.21-.95,0-1.91,0-2.86,0-.17,0-.21-.05-.21-.21,.01-.42,0-.84,0-1.26,0-.13-.04-.17-.16-.17-.43,0-.86,0-1.29,0-.13,0-.18,.05-.18,.18,0,.43,0,.86,0,1.29,0,.13-.04,.17-.17,.17-.44,0-.87,0-1.31,0-.13,0-.17-.04-.17-.17,0-.41,0-.83,0-1.24,0-.23,0-.23-.22-.23-.41,0-.83,0-1.24,0-.14,0-.18-.04-.17-.18,0-.43,0-.86,0-1.29,0-.14,.04-.18,.18-.17,.48,0,.95,0,1.45,0,0-.07,0-.13,.01-.19,0-.42,0-.84,0-1.26,0-.13,.03-.19,.18-.19,.43,0,.86,0,1.29,0,.14,0,.17,.05,.17,.18,0,.43,0,.86,0,1.29,0,.05,.06,.16,.09,.16,.5,.01,1.01,0,1.53,0,0-.22,0-.42,0-.62,0-.28,0-.56,0-.83,0-.13,.04-.18,.17-.18,.39,0,.78,0,1.17,0,1.66,0,3.32,0,4.98,0,.16,0,.22,.04,.21,.21-.01,.42,0,.84,0,1.26,0,.13,.04,.18,.18,.17,.43,0,.85,0,1.28,0,.14,0,.19,.04,.19,.18,0,.43,0,.85,0,1.28,0,.14,.05,.18,.19,.18,.43,0,.85,0,1.28,0,.13,0,.18,.04,.18,.17,0,.98,0,1.95,0,2.93,0,.13-.04,.18-.17,.18-.43,0-.85,0-1.28,0-.14,0-.19,.04-.19,.19,0,.97,0,1.94,0,2.91,0,.14,.05,.17,.18,.17,.43,0,.85,0,1.28,0,.14,0,.19,.04,.18,.18,0,.95,0,1.9,0,2.85q0,.24,.24,.24c.94,0,1.88,0,2.82,0,.16,0,.2,.04,.2,.2,0,1.5,0,3.01,0,4.51,0,.16-.04,.21-.2,.2-.41-.01-.83,0-1.24,0-.15,0-.2,.05-.2,.2,0,.42,0,.84,0,1.26,0,.15,.05,.18,.19,.18,.43,0,.85,0,1.28,0,.13,0,.18,.04,.17,.18,0,.43,0,.86,0,1.29,0,.13-.04,.18-.18,.17-.97,0-1.94,0-2.91,0-.15,0-.19-.04-.19-.19,0-1.5,0-2.99,0-4.49,0-.17-.03-.23-.21-.22-.41,.01-.82,0-1.22,0-.15,0-.2,.05-.2,.2,0,.42,0,.84,0,1.26,0,.14-.04,.18-.18,.18-.95,0-1.91,0-2.86,0-.23,0-.23,0-.23,.23,0,.41,0,.82,0,1.22,0,.14,.05,.18,.19,.18,.42,0,.84,0,1.26,0,.15,0,.19,.04,.19,.19,0,1.49,0,2.98,0,4.47q0,.24,.24,.24c.94,0,1.88,0,2.82,0,.16,0,.21,.04,.2,.2-.01,.42,0,.84,0,1.26,0,.13,.03,.18,.17,.18,.46,0,.92,0,1.38,0,.02,0,.04,0,.08-.02Zm39.2-3.25c0-.49,0-.94,0-1.4,0-.23,0-.23-.22-.23-.95,0-1.91,0-2.86,0-.15,0-.2-.04-.19-.19,0-.38,0-.76,0-1.14,0-1.13,0-2.26,0-3.39,0-.15,.04-.2,.19-.19,.21,.01,.42,0,.63,0,.26,0,.53,0,.8,0,0-.07,.01-.12,.01-.17,0-.43,0-.85,0-1.28,0-.14-.04-.19-.18-.19-.43,0-.85,0-1.28,0-.13,0-.18-.02-.18-.17,0-1.53,0-3.05,0-4.58,0-.13,.04-.17,.17-.16,.43,0,.85,0,1.28,0,.06,0,.12,0,.18,0,0-.04,.01-.05,.01-.07,0-1.02,0-2.03,0-3.05,0-.12-.06-.14-.16-.14-.43,0-.85,0-1.28,0-.16,0-.2,.06-.2,.21,0,.4,0,.81,0,1.21,0,.17-.03,.23-.21,.22-.38-.01-.76,0-1.14,0q-.28,0-.28,.27c0,.92,0,1.85,0,2.77,0,.17-.03,.23-.21,.22-.41-.01-.82,0-1.22,0-.16,0-.2,.06-.2,.21,0,.42,0,.84,0,1.26,0,.14-.04,.18-.18,.17-.43,0-.85,0-1.28,0-.14,0-.19,.05-.19,.19,0,.43,0,.85,0,1.28,0,.13-.04,.18-.17,.18-.43,0-.85,0-1.28,0-.14,0-.19,.04-.19,.18,0,.42,0,.84,0,1.26,0,.15,.04,.19,.19,.19,.96,0,1.93,0,2.89,0,.05,0,.11,0,.18-.01,0-.08,0-.14,0-.2,0-.42,0-.84,0-1.26,0-.13,.04-.17,.17-.17,.44,0,.87,0,1.31,0,.13,0,.17,.04,.17,.17,0,.98,0,1.96,0,2.94,0,.12-.04,.17-.16,.17-.43,0-.85,0-1.28,0-.15,0-.2,.04-.2,.19,0,.43,0,.85,0,1.28,0,.12-.04,.17-.16,.17-.43,0-.86,0-1.29,0-.14,0-.19-.04-.19-.18,0-.41,0-.83,0-1.24,0-.18-.05-.22-.22-.22-.96,0-1.92,0-2.87,0-.13,0-.18-.03-.18-.17,0-.43,0-.85,0-1.28,0-.15-.05-.19-.19-.19-.41,0-.82,0-1.22,0-.16,0-.22,.04-.22,.21,.01,.39,0,.78,0,1.17q0,.25-.26,.25c-.93,0-1.86,0-2.79,0-.16,0-.22,.04-.22,.21,.01,.41,0,.82,0,1.22,0,.16,.04,.2,.2,.2,.95,0,1.91,0,2.86,0,.16,0,.22,.03,.21,.21-.01,.41-.01,.83,0,1.24,0,.16-.05,.2-.21,.2-.96,0-1.92,0-2.87,0-.14,0-.19,.04-.19,.18,0,.43,0,.85,0,1.28,0,.13,.04,.18,.17,.18,.41,0,.82,0,1.22,0q.24,0,.24,.24c0,.41,0,.82,0,1.22,0,.12,.04,.17,.17,.17,.44,0,.88,0,1.33,0,.04,0,.09-.01,.14-.02,0-.49,0-.96,0-1.44,0-.13,.04-.18,.17-.18,.98,0,1.95,0,2.93,0,.13,0,.18,.03,.18,.17,0,.42,0,.84,0,1.26,0,.17,.05,.21,.21,.21,1.5,0,2.99,0,4.49,0,.06,0,.12,0,.2,0,0-.48,0-.94,0-1.41,0-.17,.04-.22,.22-.22,1.48,0,2.96,0,4.44,0,.07,0,.15,0,.25,0Zm-19.6-22.87c0-.49,0-.95,0-1.41q0-.22,.22-.22c2.56,0,5.13,0,7.69,0h.24c0-.06,.01-.11,.01-.15,0-.44,0-.87,0-1.31,0-.14-.06-.17-.18-.17-.42,0-.84,0-1.26,0-.16,0-.2-.05-.2-.2,0-.95,0-1.91,0-2.86,0-.16-.04-.22-.21-.21-.4,.01-.81,.01-1.21,0-.17,0-.22,.05-.22,.22,0,.96,0,1.92,0,2.87,0,.13-.04,.18-.17,.18-.43,0-.86,0-1.29,0-.13,0-.18-.04-.18-.17,0-.98,0-1.95,0-2.93,0-.13,.04-.18,.17-.18,.43,0,.85,0,1.28,0,.06,0,.12,0,.19-.01,0-.49,0-.96,0-1.43,0-.16-.05-.19-.2-.19-.43,0-.85,0-1.28,0-.13,0-.17-.04-.17-.17,0-.43,0-.86,0-1.29,0-.13-.03-.18-.17-.18-.43,0-.85,0-1.28,0-.14,0-.19,.05-.19,.19,0,.43,0,.86,0,1.29,0,.12-.04,.16-.16,.16-.44,0-.87,0-1.31,0-.13,0-.18-.04-.17-.18,0-.4,0-.79,0-1.19,0-.28,.04-.27-.26-.27-.94,0-1.88,0-2.82,0-.14,0-.19-.04-.18-.18,0-.39,0-.77,0-1.16,0-.32,.05-.29-.29-.29-.94,0-1.87,0-2.81,0-.13,0-.18-.04-.18-.18,0-.43,0-.85,0-1.28,0-.14-.03-.19-.18-.19-.42,0-.84,0-1.26,0-.15,0-.2,.04-.2,.19,0,.96,0,1.92,0,2.87,0,.16,.05,.2,.2,.2,.96,0,1.93,0,2.89,0,.13,0,.18,.03,.18,.17,0,.43,0,.85,0,1.28,0,.15,.05,.19,.19,.19,.95,0,1.89,0,2.84,0q.23,0,.23,.23c0,2.02,0,4.04,0,6.06,0,.57,0,1.15,0,1.72,0,.13,.04,.17,.17,.16,.16,0,.33,0,.49,0,.32,0,.63,0,.97,0ZM9.8,44.1c0-.08,0-.15,0-.21,0-.42,0-.84,0-1.26,0-.12,.03-.17,.16-.17,.98,0,1.96,0,2.94,0,.14,0,.17,.05,.17,.18,0,.41,0,.82,0,1.22q0,.24-.23,.24c-.94,0-1.88,0-2.82,0-.16,0-.22,.04-.22,.21,.01,.41,0,.82,0,1.22,0,.15,.04,.2,.2,.2,.95,0,1.91,0,2.86,0,.18,0,.22,.05,.22,.22-.01,.41,0,.83,0,1.24,0,.13,.04,.18,.17,.18,.34,0,.68,0,1.02,0,.14,0,.28,0,.42,0,0-.05,.01-.08,.01-.11,0-2.09,0-4.19,0-6.28,0-.13-.06-.15-.17-.15-.42,0-.84,0-1.26,0-.16,0-.21-.04-.21-.21,0-.95,0-1.89,0-2.84,0-.22,0-.22-.22-.22-1.49,0-2.97,0-4.46,0-.17,0-.22-.04-.22-.22,0-.96,0-1.92,0-2.88,0-.13-.03-.18-.17-.18-.43,0-.86,0-1.29,0-.12,0-.17,.04-.17,.17,0,1.53,0,3.05,0,4.58,0,.12,.04,.16,.16,.15,.44,0,.87,0,1.31,0,.12,0,.17,.04,.17,.16,0,.98,0,1.96,0,2.94,0,.12-.04,.17-.16,.17-.43,0-.86,0-1.29,0-.14,0-.19-.04-.19-.18,0-.43,0-.86,0-1.29,0-.11-.03-.16-.15-.16-.98,0-1.96,0-2.94,0-.12,0-.17,.04-.17,.17,0,.44,0,.87,0,1.31,0,.12,.05,.15,.16,.15,.43,0,.85,0,1.28,0,.16,0,.2,.04,.2,.2,0,.95,0,1.91,0,2.86,0,.16,.03,.22,.2,.21,.96,0,1.92,0,2.88,0,.06,0,.11,0,.18-.01,0-.07,0-.13,0-.19,0-.41,0-.82,0-1.22,0-.17,.05-.21,.21-.21,.46,0,.93,0,1.42,0Zm27.75,4.9c0-.05,.01-.09,.01-.12,0-1.54,0-3.09,0-4.63,0-.13-.06-.15-.16-.15-.41,0-.83,0-1.24,0-.22,0-.22,0-.22,.23,0,.95,0,1.91,0,2.86,0,.13-.03,.18-.17,.18-.44,0-.87,0-1.31,0-.13,0-.16-.05-.16-.17,0-.43,0-.86,0-1.29,0-.13-.04-.18-.17-.18-.43,0-.85,0-1.28,0-.14,0-.19,.05-.18,.19,0,.43,0,.85,0,1.28,0,.14-.04,.18-.18,.17-.43,0-.86,0-1.29,0-.14,0-.18-.04-.17-.18,0-.43,0-.85,0-1.28,0-.14-.04-.19-.18-.19-.42,0-.84,0-1.26,0-.15,0-.2,.05-.19,.2,0,.42,0,.84,0,1.26,0,.14-.05,.18-.19,.18-.4,0-.79,0-1.19,0q-.26,0-.26,.26c0,1.48,0,2.96,0,4.44,0,.16-.04,.21-.2,.2-.42-.01-.84,0-1.26,0-.13,0-.18,.05-.18,.18,0,.41,.01,.83,0,1.24,0,.18,.06,.21,.22,.21,.95,0,1.91,0,2.86,0,.15,0,.2,.04,.19,.19,0,.41,0,.82,0,1.22,0,.17,.03,.23,.21,.22,.39-.01,.78,0,1.17,0,.08,0,.15,0,.24,0,0-.5,0-.97,0-1.44,0-.16,.05-.2,.21-.2,.41,0,.83,0,1.24,0,.06,0,.12,0,.18,0,0-.04,.01-.05,.01-.07,0-1.02,0-2.03,0-3.05,0-.12-.06-.14-.16-.14-.43,0-.85,0-1.28,0-.16,0-.2,.06-.2,.21,0,.42,0,.84,0,1.26,0,.12-.03,.17-.16,.17-.44,0-.88,0-1.33,0-.12,0-.16-.05-.15-.16,0-.44,0-.87,0-1.31,0-.14,.05-.17,.18-.17,.3,0,.6,0,.9,0,.18,0,.36,0,.56,0,0-.09,0-.15,0-.21,0-.42,0-.84,0-1.26,0-.12,.03-.17,.16-.17,.98,0,1.96,0,2.94,0,.14,0,.17,.06,.17,.18,0,.43,0,.86,0,1.29,0,.13,.04,.17,.17,.16,.44,0,.88,0,1.33,0,.04,0,.09-.01,.14-.02,0-.48,0-.95,0-1.42,0-.15,.04-.2,.19-.19,.47,0,.94,0,1.43,0Zm-1.63-31.04s0-.08,0-.11c0-2.63,0-5.26,0-7.89,0-.12-.04-.16-.16-.16-.41,0-.82,0-1.22,0q-.25,0-.25,.24c0,.93,0,1.86,0,2.79q0,.24-.23,.24c-.39,0-.78,0-1.17,0q-.24,0-.24-.24c0-1.49,0-2.97,0-4.46,0-.1,.02-.2-.15-.2-.99,0-1.97,0-2.96,0-.12,0-.16,.04-.16,.16,0,.44,0,.87,0,1.31,0,.13,.05,.16,.17,.16,.42,0,.84,0,1.26,0,.16,0,.21,.04,.21,.21,0,1.49,0,2.98,0,4.47,0,.22,0,.22,.23,.22,.95,0,1.91,0,2.86,0,.14,0,.19,.04,.19,.18,0,.42,0,.84,0,1.26,0,.15-.04,.21-.2,.2-.41-.01-.82,0-1.22,0-.16,0-.22,.04-.22,.21,.01,.41,0,.82,0,1.22,0,.16,.05,.2,.2,.2,.96,0,1.92,0,2.87,0,.06,0,.11,0,.18,0Zm16.33,34.31c0-.08,0-.13,0-.18,0-1.51,0-3.02,0-4.52,0-.17-.06-.19-.21-.19-1.49,0-2.98,0-4.47,0-.17,0-.22,.05-.22,.22,0,1.49,0,2.97,0,4.46,0,.22,0,.22,.23,.22,1.49,0,2.97,0,4.46,0h.2Zm-3.27-32.67s.01-.07,.01-.09c0-1.01,0-2.02,0-3.03,0-.15-.09-.14-.19-.14-1.5,0-3,0-4.51,0-.16,0-.21,.05-.2,.21,0,.5,0,1.01,0,1.51,0,1.54,0,3.08,0,4.63,0,.15,.05,.19,.2,.19,.37,0,.74,0,1.11,0,.11,0,.21,0,.33,0,0-.09,0-.15,0-.21,0-.42,0-.84,0-1.26,0-.13,.04-.17,.17-.17,.43,0,.85,0,1.28,0,.06,0,.12,0,.19,0,0-.52,0-1.01,0-1.51,0-.11-.08-.11-.15-.11-.44,0-.87,0-1.31,0-.14,0-.18-.04-.17-.18,0-.43,0-.86,0-1.29,0-.14,.04-.18,.18-.17,.43,0,.85,0,1.28,0,.15,0,.19,.05,.19,.19,0,.43,0,.85,0,1.28,0,.08-.02,.17,.11,.17,.5,0,1,0,1.51,0Zm.01,35.93c0-.48,0-.93,0-1.39q0-.24-.24-.24c-1.49,0-2.98,0-4.47,0-.15,0-.2-.04-.19-.19,0-.42,0-.84,0-1.26,0-.14-.03-.19-.18-.19-.42,0-.84,0-1.26,0-.15,0-.2,.04-.2,.19,0,.96,0,1.92,0,2.87,0,.16,.05,.2,.2,.2,.96,0,1.92,0,2.87,0,.15,0,.2,.04,.2,.19,0,.43,0,.85,0,1.28,0,.13,.04,.18,.18,.17,.35,0,.69,0,1.04,0,.13,0,.27,0,.42,0,0-.49,0-.95,0-1.42,0-.17,.04-.22,.22-.22,.46,.01,.93,0,1.42,0Zm-8.99-13.07c.77,0,1.53,0,2.3,0,.13,0,.17,.04,.17,.17,0,.43,0,.85,0,1.28,0,.16,.05,.2,.2,.2,.42,0,.84,0,1.26,0,.13,0,.17-.04,.17-.17,0-.97,0-1.94,0-2.91,0-.16-.06-.19-.2-.19-.43,0-.85,0-1.28,0-.13,0-.17-.04-.17-.17,0-.43,0-.86,0-1.29,0-.13-.03-.18-.17-.18-.43,0-.85,0-1.28,0-.14,0-.19,.05-.19,.19,0,.41,0,.83,0,1.24,0,.16-.05,.21-.21,.21-.95,0-1.91,0-2.86,0-.16,0-.21,.05-.21,.2,0,.41,0,.83,0,1.24,0,.15,.05,.19,.2,.19,.75,0,1.5,0,2.25,0Zm-20.41,3.27c0-.52,0-1.02,0-1.52,0-.13-.09-.11-.17-.11-.43,0-.86,0-1.29,0-.13,0-.18-.04-.18-.17,0-.43,0-.86,0-1.29,0-.14-.05-.17-.18-.17-.4,0-.79,0-1.19,0q-.26,0-.26,.26c0,1.47,0,2.95,0,4.42,0,.16-.03,.23-.21,.22-.41-.01-.83,0-1.24,0-.14,0-.19,.05-.18,.19,0,.42,0,.84,0,1.26,0,.15,.05,.19,.2,.19,.96,0,1.93,0,2.89,0,.05,0,.11,0,.18-.01v-.22c0-.94,0-1.88,0-2.82,0-.17,.04-.23,.22-.22,.46,.01,.93,0,1.42,0Zm31.02-21.23s.01-.07,.01-.09c0-1.01,0-2.02,0-3.03,0-.12-.05-.14-.15-.14-.43,0-.86,0-1.29,0-.14,0-.19,.05-.19,.19,0,.42,0,.84,0,1.26,0,.15-.05,.19-.19,.19-.96,0-1.92,0-2.87,0-.16,0-.21,.05-.2,.2,0,.41,.01,.82,0,1.22,0,.17,.05,.21,.21,.21,1.5,0,2.99,0,4.49,0h.18ZM11.43,32.67c0-.06,.01-.11,.01-.15,0-.44,0-.87,0-1.31,0-.14-.05-.17-.18-.17-1.51,0-3.03,0-4.54,0-.13,0-.18,.03-.18,.17,0,.43,0,.86,0,1.29,0,.14,.05,.17,.18,.17,.42,0,.85,0,1.27,0,.14,0,.19,.05,.18,.19,0,.4,0,.79,0,1.19q0,.26,.25,.26c.39,0,.78,0,1.17,0,.06,0,.12,0,.19,0,0-.07,0-.13,0-.19,0-.43,0-.85,0-1.28,0-.12,.04-.16,.16-.16,.31,0,.61,0,.92,0,.18,0,.36,0,.55,0Zm3.28-6.53c0-.53,0-1.03,0-1.53,0-.03-.1-.09-.16-.09-.42,0-.85-.01-1.28,0-.16,0-.2-.05-.2-.2,0-.42,0-.84,0-1.26,0-.13-.04-.18-.17-.18-.42,0-.85,0-1.28,0-.14,0-.19,.05-.19,.19,0,.42,0,.85,0,1.28,0,.13-.04,.18-.17,.18-.42,0-.84,0-1.26,0-.15,0-.21,.04-.21,.2,0,.41,.01,.82,0,1.22,0,.17,.05,.21,.21,.21,1.5,0,2.99,0,4.49,0,.06,0,.11,0,.2,0Zm-1.65-4.9s.01-.06,.01-.08c0-1.01,0-2.03,0-3.04,0-.14-.07-.14-.17-.14-1.51,0-3.03,0-4.54,0-.14,0-.19,.04-.19,.19,0,.42,0,.84,0,1.26,0,.15,.05,.19,.19,.19,.94,0,1.88,0,2.82,0q.25,0,.25,.24c0,.41,0,.82,0,1.22,0,.05,.06,.16,.09,.16,.5,.01,1.01,0,1.52,0Zm35.93,22.87s.02-.06,.02-.07c0-1.02,0-2.04,0-3.06,0-.11-.06-.13-.15-.13-.99,0-1.97,0-2.96,0-.12,0-.16,.05-.16,.16,0,.44,0,.87,0,1.31,0,.13,.05,.16,.17,.16,.42,0,.85,0,1.27,0,.15,0,.2,.04,.19,.19,0,.43,0,.86,0,1.29,0,.07,0,.15,.11,.15,.5,0,1,0,1.5,0Zm-4.89-17.97s.01-.06,.01-.08c0-1.01,0-2.02,0-3.03,0-.12-.05-.14-.15-.14-.43,0-.86,0-1.29,0-.14,0-.19,.05-.19,.19,0,.43,0,.85,0,1.28,0,.13-.04,.18-.17,.18-.43,0-.85,0-1.28,0-.14,0-.19,.05-.19,.19,0,.42,0,.84,0,1.26,0,.15,.05,.19,.2,.19,.96,0,1.93,0,2.89,0,.05,0,.1,0,.16,0Zm1.65,3.28c0-.51,0-1,0-1.48,0-.12,.04-.16,.16-.16,.21,0,.42,0,.63,0,.28,0,.55,0,.85,0,0-.52,0-1.03,0-1.53,0-.03-.08-.09-.12-.09-1,0-2,0-2.99,0-.1,0-.15,.04-.14,.14,0,.1,0,.19,0,.29,0,.88,0,1.76,0,2.64,0,.16,.05,.21,.2,.2,.16-.01,.33,0,.49,0,.3,0,.61,0,.94,0Zm4.9,0c0-.53,0-1.02,0-1.52,0-.11-.08-.11-.15-.11-.98,0-1.96,0-2.94,0-.12,0-.17,.04-.17,.17,0,.98,0,1.96,0,2.94,0,.12,.04,.16,.16,.16,.36,0,.71,0,1.07,0,.13,0,.26,0,.4,0,0-.49,0-.95,0-1.42,0-.17,.04-.22,.22-.22,.46,.01,.93,0,1.42,0Zm-44.11,1.62s.01-.06,.01-.08c0-1.01,0-2.02,0-3.03,0-.12-.05-.14-.15-.14-.43,0-.86,0-1.29,0-.14,0-.19,.05-.19,.19,0,.43,0,.85,0,1.28,0,.14-.04,.18-.18,.17-.43,0-.85,0-1.28,0-.14,0-.19,.05-.19,.19,0,.42,0,.84,0,1.26,0,.15,.05,.19,.2,.19,.96,0,1.93,0,2.89,0,.05,0,.1,0,.16,0ZM29.39,13.07s.01-.07,.01-.09c0-1.01,0-2.02,0-3.02,0-.11-.04-.15-.15-.15-.43,0-.86,0-1.29,0-.15,0-.19,.05-.19,.2,0,.42,0,.85,0,1.27,0,.13-.04,.17-.17,.17-.42,0-.85,0-1.27,0-.15,0-.2,.04-.2,.19,0,.41,0,.83,0,1.24,0,.15,.04,.2,.2,.2,.96,0,1.91,0,2.87,0h.18Zm4.91,31.03c0-.53,0-1.02,0-1.52,0-.11-.08-.11-.15-.11-.98,0-1.96,0-2.94,0-.13,0-.17,.05-.17,.17,0,.98,0,1.96,0,2.94,0,.12,.05,.15,.16,.15,.39,0,.78,0,1.17,0,.09,0,.19,0,.3,0,0-.48,0-.93,0-1.38q0-.25,.25-.25c.45,0,.9,0,1.38,0Zm-4.9,0c0-.5,0-.97,0-1.45,0-.14-.04-.18-.17-.17-.97,0-1.94,0-2.91,0-.14,0-.19,.05-.18,.19,0,.41,0,.83,0,1.24,0,.15,.04,.2,.2,.2,.96,0,1.92,0,2.87,0,.06,0,.11,0,.19,0Zm1.63-27.76c0-.53,0-1.02,0-1.52,0-.13-.09-.11-.17-.11-.97,0-1.94,0-2.91,0-.14,0-.19,.05-.19,.19,0,.41,.01,.83,0,1.24,0,.17,.06,.21,.21,.2,.95,0,1.9,0,2.86,0h.19ZM11.44,29.39c0-.51,0-1.01,0-1.51,0-.11-.08-.11-.15-.11-.98,0-1.96,0-2.94,0-.12,0-.17,.04-.17,.17,0,.44,0,.87,0,1.31,0,.12,.04,.15,.16,.15,.99,0,1.98,0,2.98,0,.03,0,.07,0,.13-.01Zm9.78,22.87s.01-.05,.01-.08c0-.47,0-.94,0-1.41,0-.13-.07-.13-.16-.13-.98,0-1.95,0-2.93,0-.13,0-.18,.05-.18,.18,0,.41,.01,.83,0,1.24,0,.18,.06,.22,.22,.21,.95,0,1.89,0,2.84,0,.06,0,.12,0,.19,0Zm4.9-3.27s.01-.05,.01-.07c0-.47,0-.94,0-1.41,0-.13-.07-.13-.16-.13-.98,0-1.95,0-2.93,0-.13,0-.18,.04-.18,.18,0,.42,0,.84,0,1.26,0,.16,.05,.2,.2,.2,.96,0,1.92,0,2.88,0,.06,0,.11,0,.17,0Zm-11.42-16.32c0-.53,0-1.02,0-1.52,0-.04-.07-.1-.11-.1-.46,0-.92,0-1.38,0-.04,0-.12,.07-.12,.11,0,.46,0,.93,0,1.39,0,.04,.06,.11,.09,.11,.5,0,1.01,0,1.53,0Zm-1.66,1.63s.02-.04,.03-.05c0-.49,0-.98,0-1.46,0-.11-.06-.12-.14-.12-.44,0-.88,0-1.33,0-.12,0-.16,.04-.16,.16,0,.44,0,.88,0,1.33,0,.11,.04,.15,.15,.14,.22,0,.44,0,.66,0,.26,0,.53,0,.78,0Zm9.8,16.33s.02-.04,.03-.05c0-.49,0-.98,0-1.46,0-.11-.06-.12-.14-.12-.44,0-.88,0-1.33,0-.12,0-.16,.04-.16,.16,0,.44,0,.88,0,1.33,0,.11,.04,.15,.15,.14,.22,0,.44,0,.66,0,.26,0,.53,0,.78,0Zm-11.4-14.7c0-.52,0-1.03,0-1.53,0-.03-.08-.09-.12-.09-.45,0-.91,0-1.36,0-.1,0-.14,.04-.14,.14,0,.45,0,.91,0,1.36,0,.1,.04,.13,.13,.13,.22,0,.43,0,.65,0,.28,0,.55,0,.85,0Zm4.9-14.7c0-.52,0-1.02,0-1.51,0-.12-.07-.12-.16-.12-.43,0-.86,0-1.29,0-.15,0-.19,.06-.18,.19,0,.33,0,.66,0,.99q0,.45,.45,.45h1.18Zm19.6,21.23c0-.53,0-1.03,0-1.53,0-.03-.07-.09-.11-.09-.46,0-.93,0-1.39,0-.04,0-.11,.07-.11,.11,0,.47,0,.94,0,1.41,0,.04,.06,.1,.1,.1,.5,0,1,0,1.52,0Zm6.5-22.87s.03-.04,.03-.05c0-.49,0-.98,0-1.46,0-.11-.06-.12-.14-.12-.44,0-.88,0-1.33,0-.12,0-.16,.04-.16,.16,0,.44,0,.88,0,1.33,0,.11,.04,.15,.15,.14,.22,0,.44,0,.66,0,.26,0,.53,0,.78,0Zm-35.9,0c0-.52,0-1.03,0-1.53,0-.03-.08-.09-.12-.09-.45,0-.91,0-1.36,0-.1,0-.14,.04-.14,.14,0,.45,0,.91,0,1.36,0,.1,.04,.13,.13,.13,.22,0,.43,0,.65,0,.28,0,.55,0,.85,0Zm34.3-1.63c0-.53,0-1.02,0-1.51,0-.04-.08-.11-.12-.11-.45,0-.91,0-1.36,0-.1,0-.14,.04-.14,.14,0,.45,0,.91,0,1.36,0,.11,.06,.13,.15,.13,.38,0,.76,0,1.14,0,.11,0,.21,0,.34,0Zm11.4,26.13s.03-.04,.03-.05c0-.49,0-.97,0-1.46,0-.11-.06-.12-.14-.12-.44,0-.88,0-1.33,0-.12,0-.16,.04-.16,.16,0,.44,0,.88,0,1.33,0,.11,.04,.15,.15,.14,.21,0,.42,0,.63,0,.28,0,.55,0,.82,0Zm-4.9,1.63s.03-.04,.03-.05c0-.49,0-.97,0-1.46,0-.11-.06-.12-.14-.12-.44,0-.88,0-1.33,0-.12,0-.16,.04-.16,.16,0,.44,0,.88,0,1.33,0,.11,.04,.15,.15,.14,.21,0,.42,0,.63,0,.28,0,.55,0,.82,0Zm3.3,0c0-.52,0-1.02,0-1.52,0-.04-.07-.1-.11-.1-.46,0-.92,0-1.38,0-.09,0-.13,.04-.13,.13,0,.46,0,.92,0,1.38,0,.04,.07,.11,.1,.11,.5,0,1,0,1.52,0Zm-4.9-13.07c0-.53,0-1.02,0-1.52,0-.04-.08-.1-.13-.1-.45,0-.9,0-1.34,0-.1,0-.15,.03-.15,.14,0,.46,0,.92,0,1.38,0,.04,.07,.11,.1,.11,.5,0,1,0,1.52,0Zm-17.97,14.7c0-.52,0-1.03,0-1.53,0-.03-.09-.09-.14-.09-.44,0-.88,0-1.33,0-.1,0-.16,.03-.16,.15,0,.45,0,.91,0,1.36,0,.04,.07,.12,.11,.12,.49,0,.99,0,1.51,0Zm-6.53,1.63c0-.53,0-1.02,0-1.52,0-.04-.07-.1-.11-.1-.46,0-.92,0-1.38,0-.09,0-.13,.04-.13,.13,0,.46,0,.92,0,1.38,0,.04,.07,.11,.1,.11,.5,0,1,0,1.52,0ZM26.11,11.44s.03-.04,.03-.05c0-.49,0-.97,0-1.46,0-.11-.06-.12-.14-.12-.44,0-.88,0-1.33,0-.12,0-.16,.04-.16,.16,0,.44,0,.88,0,1.33,0,.11,.04,.15,.15,.14,.21,0,.42,0,.63,0,.28,0,.55,0,.82,0Zm1.66-1.63c0-.52,0-1.02,0-1.52,0-.04-.07-.1-.11-.1-.46,0-.92,0-1.38,0-.09,0-.13,.04-.13,.13,0,.46,0,.92,0,1.38,0,.04,.07,.11,.1,.11,.5,0,1,0,1.52,0Zm14.7-4.9c0-.52,0-1.02,0-1.52,0-.04-.07-.1-.11-.1-.46,0-.92,0-1.38,0-.09,0-.13,.04-.13,.13,0,.46,0,.92,0,1.38,0,.04,.07,.11,.1,.11,.5,0,1,0,1.52,0Zm-13.07,3.27c0-.53,0-1.03,0-1.53,0-.03-.08-.09-.12-.09-.45,0-.91,0-1.36,0-.1,0-.14,.05-.14,.15,0,.45,0,.91,0,1.36,0,.04,.07,.12,.11,.12,.49,0,.99,0,1.51,0Zm14.7-4.9c0-.53,0-1.03,0-1.53,0-.03-.07-.09-.11-.09-.46,0-.93,0-1.39,0-.04,0-.11,.07-.11,.11,0,.47,0,.94,0,1.41,0,.04,.06,.1,.1,.1,.5,0,1,0,1.52,0Zm8.17,24.5c0-.52,0-1.03,0-1.53,0-.03-.08-.09-.12-.09-.45,0-.91,0-1.36,0-.1,0-.14,.04-.14,.14,0,.45,0,.91,0,1.36,0,.04,.07,.12,.11,.12,.49,0,.99,0,1.51,0Zm-9.8,24.5c0-.52,0-1.03,0-1.53,0-.03-.08-.09-.12-.09-.45,0-.91,0-1.36,0-.1,0-.14,.04-.14,.14,0,.45,0,.91,0,1.36,0,.1,.04,.13,.13,.13,.22,0,.43,0,.65,0,.28,0,.55,0,.85,0ZM17.97,31.04c0-.53,0-1.03,0-1.53,0-.03-.07-.09-.11-.09-.46,0-.92,0-1.38,0-.09,0-.14,.04-.14,.13,0,.46,0,.92,0,1.38,0,.04,.06,.11,.1,.11,.5,0,1,0,1.52,0Zm17.94,22.87s.03-.04,.03-.05c0-.49,0-.97,0-1.46,0-.11-.06-.12-.14-.12-.44,0-.88,0-1.33,0-.12,0-.16,.04-.16,.16,0,.44,0,.88,0,1.33,0,.11,.04,.15,.15,.14,.21,0,.42,0,.63,0,.28,0,.55,0,.82,0ZM16.31,27.77s.02-.04,.03-.05c0-.49,0-.98,0-1.46,0-.11-.06-.12-.14-.12-.44,0-.88,0-1.33,0-.12,0-.16,.04-.16,.16,0,.44,0,.88,0,1.33,0,.11,.04,.15,.15,.14,.22,0,.44,0,.66,0,.26,0,.53,0,.78,0Zm37.6-4.9c0-.52,0-1.03,0-1.53,0-.03-.08-.09-.12-.09-.45,0-.91,0-1.36,0-.1,0-.14,.04-.14,.14,0,.45,0,.91,0,1.36,0,.1,.04,.13,.13,.13,.22,0,.43,0,.65,0,.28,0,.55,0,.85,0ZM29.37,57.17s.02-.04,.02-.05c0-.49,0-.97,0-1.46,0-.11-.06-.12-.14-.12-.44,0-.88,0-1.33,0-.12,0-.16,.04-.16,.16,0,.44,0,.88,0,1.33,0,.11,.04,.15,.15,.14,.22,0,.44,0,.66,0,.26,0,.53,0,.78,0Z"/>
      <path class="cls-2" d="M17.97,13.07c0-.52,0-1.02,0-1.52,0-.13-.09-.11-.17-.11-.43,0-.85,0-1.28,0-.15,0-.19-.04-.19-.19,0-.95,0-1.91,0-2.86q0-.22-.23-.22c-.39,0-.78,0-1.17,0-.23,0-.23,0-.23,.22,0,2.02,0,4.04,0,6.06q0,.25-.25,.25c-.41,0-.82,0-1.22,0-.12,0-.17-.03-.17-.16,0-2.07,0-4.14,0-6.21,0-.14,.05-.17,.18-.17,.48,0,.95,0,1.45,0,0-.07,0-.12,0-.17,0-.96,0-1.93,0-2.89,0-.16-.05-.2-.2-.2-.42,0-.84,0-1.26,0-.13,0-.18-.04-.18-.17,0-1.52,0-3.04,0-4.56,0-.13,.04-.18,.17-.18,2.06,0,4.13,0,6.19,0,.13,0,.18,.04,.18,.17,0,.43,0,.85,0,1.28,0,.15,.05,.19,.2,.19,.47,0,.94,0,1.44,0,0-.11,0-.2,0-.3,0-.39,0-.78,0-1.17,0-.13,.04-.17,.17-.17,.44,0,.87,0,1.31,0,.13,0,.17,.04,.17,.17,0,.44,0,.87,0,1.31,0,.13-.04,.17-.17,.17-.43,0-.86,0-1.29,0-.13,0-.18,.04-.18,.18,0,.43,0,.86,0,1.29,0,.13,.05,.16,.17,.16,.43,0,.86,0,1.29,0,.13,0,.18,.04,.18,.17,0,.43,0,.86,0,1.29,0,.13-.04,.18-.17,.18-.41,0-.83,0-1.24,0-.17,0-.22,.05-.22,.22,0,2.02,0,4.05,0,6.07q0,.24-.24,.24c-.4,0-.81,0-1.21,0-.14,0-.19,.04-.19,.18,0,.43,0,.85,0,1.28,0,.13,.04,.18,.18,.17,.43,0,.86,0,1.29,0,.12,0,.17,.03,.17,.16,0,.44,0,.88,0,1.33,0,.11-.03,.15-.15,.15-1.54,0-3.07,0-4.61,0-.11,0-.15-.03-.15-.14,0-.45,0-.9,0-1.34,0-.12,.05-.15,.16-.15,.48,0,.96,0,1.47,0Zm1.62-4.9c0-.07,.01-.12,.01-.17,0-2.06,0-4.12,0-6.17,0-.15-.05-.19-.2-.19-1.5,0-2.99,0-4.49,0-.18,0-.22,.06-.22,.23,0,.94,0,1.88,0,2.82,0,.17,.04,.22,.22,.22,.95,0,1.9,0,2.86,0,.16,0,.2,.05,.2,.2-.01,.27,0,.54,0,.82,0,.69,0,1.38,0,2.07,0,.08-.02,.18,.12,.18,.49,0,.99,0,1.5,0Zm-.02,3.27s.03-.04,.03-.05c0-.49,0-.97,0-1.46,0-.11-.06-.12-.14-.12-.44,0-.88,0-1.33,0-.12,0-.16,.04-.16,.16,0,.44,0,.88,0,1.33,0,.11,.04,.15,.15,.14,.22,0,.44,0,.66,0,.26,0,.53,0,.78,0Z"/>
      <path class="cls-2" d="M0,5.7c0-1.83,0-3.65,0-5.48C0,.05,.04,0,.22,0c3.66,0,7.31,0,10.97,0,.17,0,.22,.04,.22,.22,0,3.66,0,7.31,0,10.97,0,.17-.04,.22-.22,.22-3.66,0-7.31,0-10.97,0-.17,0-.22-.04-.22-.22,0-1.83,0-3.66,0-5.49ZM1.62,1.62V9.79H9.79V1.62H1.62Z"/>
      <path class="cls-2" d="M54.7,0c1.83,0,3.65,0,5.48,0q.22,0,.22,.22c0,3.65,0,7.3,0,10.95q0,.22-.22,.22c-3.65,0-7.3,0-10.95,0q-.22,0-.22-.22c0-3.65,0-7.3,0-10.95q0-.22,.22-.22c1.83,0,3.65,0,5.48,0Zm-4.09,1.61V9.79h8.18V1.62h-8.18Z"/>
      <path class="cls-2" d="M5.71,49c1.83,0,3.65,0,5.48,0q.22,0,.22,.22c0,3.65,0,7.3,0,10.95q0,.22-.22,.22c-3.65,0-7.3,0-10.95,0q-.22,0-.22-.22c0-3.65,0-7.3,0-10.95q0-.22,.22-.22c1.83,0,3.65,0,5.48,0Zm4.09,1.61H1.62v8.18H9.79v-8.18Z"/>
      <path class="cls-2" d="M57.17,52.27c0-.11,0-.18,0-.25,0-.95,0-1.89,0-2.84,0-.13,.04-.18,.17-.18,.98,0,1.95,0,2.93,0,.13,0,.18,.04,.18,.17,0,.98,0,1.95,0,2.93,0,.13-.04,.18-.17,.18-.43,0-.85,0-1.28,0-.14,0-.19,.04-.19,.19,0,.43,0,.85,0,1.28,0,.13-.04,.18-.17,.18-.98,0-1.95,0-2.93,0-.13,0-.18-.04-.18-.17,0-.43,0-.86,0-1.29,0-.13,.04-.18,.17-.18,.42,0,.84,0,1.26,0h.2Z"/>
      <path class="cls-2" d="M41.65,60.44c-.75,0-1.51,0-2.26,0-.15,0-.19-.05-.19-.19,0-.96,0-1.93,0-2.89,0-.15,.04-.2,.19-.19,.42,0,.85,0,1.28,0,.13,0,.18,.04,.18,.17,0,.42,0,.84,0,1.26,0,.17,.05,.21,.21,.21,.95,0,1.9,0,2.86,0,.15,0,.21,.04,.2,.2-.01,.41-.01,.83,0,1.24,0,.17-.06,.21-.22,.2-.75,0-1.5,0-2.24,0Z"/>
      <path class="cls-2" d="M5.74,13.07c.75,0,1.5,0,2.25,0,.15,0,.2,.04,.19,.19,0,.43,0,.85,0,1.28,0,.13-.04,.18-.17,.18-1.52,0-3.04,0-4.56,0-.13,0-.18-.04-.18-.17,0-.43,0-.86,0-1.29,0-.13,.04-.18,.17-.18,.77,0,1.53,0,2.3,0Z"/>
      <path class="cls-2" d="M0,21.26c0-.49,0-.99,0-1.48,0-.14,.04-.18,.18-.17,.43,0,.86,0,1.29,0,.14,0,.17,.04,.17,.18,0,.98,0,1.95,0,2.93,0,.14-.04,.18-.18,.17-.43,0-.86,0-1.29,0-.14,0-.18-.04-.17-.18,0-.48,0-.96,0-1.45Z"/>
      <path class="cls-2" d="M0,26.14c0-.49,0-.98,0-1.46,0-.14,.04-.18,.18-.17,.43,0,.86,0,1.29,0,.14,0,.17,.04,.17,.18,0,.98,0,1.95,0,2.93,0,.14-.04,.18-.18,.17-.43,0-.86,0-1.29,0-.14,0-.18-.04-.17-.18,0-.49,0-.98,0-1.46Z"/>
      <path class="cls-2" d="M21.23,58.81c-.48,0-.95,0-1.43,0-.14,0-.2-.03-.2-.19,0-.43,0-.85,0-1.28,0-.15,.05-.18,.19-.18,.96,0,1.93,0,2.89,0,.16,0,.2,.06,.2,.21,0,.41,0,.83,0,1.24,0,.14-.03,.2-.19,.2-.49,0-.98,0-1.46,0Z"/>
      <path class="cls-2" d="M57.17,46.57c0-.22,0-.43,0-.65,0-.14,.03-.19,.18-.19,.43,0,.86,0,1.29,0,.12,0,.17,.03,.17,.16,0,.44,0,.88,0,1.33,0,.12-.05,.15-.16,.15-.44,0-.88,0-1.33,0-.12,0-.16-.05-.15-.16,0-.22,0-.43,0-.65Z"/>
      <path class="cls-2" d="M21.24,18.79c0,.21,0,.42,0,.63,0,.16-.05,.19-.2,.19-.41,0-.83-.01-1.24,0-.17,0-.21-.06-.21-.21,0-.41,0-.82,0-1.22,0-.15,.03-.21,.2-.21,.41,.01,.83,0,1.24,0,.15,0,.22,.03,.21,.2-.01,.21,0,.42,0,.63Z"/>
      <path class="cls-2" d="M20.44,21.24c.22,0,.43,0,.65,0,.11,0,.16,.03,.16,.15,0,.44,0,.88,0,1.33,0,.11-.03,.16-.15,.16-.44,0-.88,0-1.33,0-.11,0-.16-.03-.16-.15,0-.44,0-.88,0-1.33,0-.13,.05-.17,.17-.16,.22,0,.44,0,.66,0Z"/>
      <path class="cls-2" d="M10.63,14.71c-.22,0-.44,0-.66,0-.12,0-.17-.03-.17-.16,0-.44,0-.87,0-1.31,0-.12,.03-.17,.16-.17,.44,0,.87,0,1.31,0,.12,0,.17,.03,.17,.16,0,.44,0,.87,0,1.31,0,.14-.05,.17-.18,.17-.21,0-.42,0-.63,0Z"/>
      <path class="cls-2" d="M52.27,38.39c0,.23,0,.45,0,.68,0,.1-.04,.14-.14,.14-.45,0-.91,0-1.36,0-.1,0-.14-.04-.14-.14,0-.45,0-.91,0-1.36,0-.1,.04-.14,.14-.14,.45,0,.91,0,1.36,0,.1,0,.14,.04,.14,.14,0,.23,0,.45,0,.68Z"/>
      <path class="cls-2" d="M48.17,37.58c-.22,0-.44,0-.66,0-.1,0-.14-.03-.14-.14,0-.45,0-.91,0-1.36,0-.1,.03-.14,.14-.14,.45,0,.91,0,1.36,0,.1,0,.14,.03,.14,.14,0,.45,0,.91,0,1.36,0,.12-.05,.14-.16,.14-.23,0-.45,0-.68,0Z"/>
      <path class="cls-2" d="M39.2,11.44c0-.49,0-.98,0-1.46,0-.14,.04-.18,.18-.17,.43,0,.86,0,1.29,0,.14,0,.17,.04,.17,.18,0,.98,0,1.95,0,2.93,0,.14-.04,.18-.18,.17-.43,0-.86,0-1.29,0-.14,0-.18-.04-.17-.18,0-.49,0-.98,0-1.46Z"/>
      <path class="cls-2" d="M11.44,40.04c0,.22,0,.44,0,.66,0,.1-.03,.14-.14,.14-.45,0-.91,0-1.36,0-.1,0-.14-.03-.14-.14,0-.45,0-.91,0-1.36,0-.1,.03-.14,.14-.14,.45,0,.91,0,1.36,0,.12,0,.14,.05,.14,.16,0,.23,0,.45,0,.68Z"/>
      <path class="cls-2" d="M49.82,50.64c-.23,0-.45,0-.68,0-.1,0-.14-.04-.14-.14,0-.45,0-.91,0-1.36,0-.1,.04-.14,.14-.14,.45,0,.91,0,1.36,0,.1,0,.14,.04,.14,.14,0,.45,0,.91,0,1.36,0,.1-.04,.14-.14,.14-.23,0-.45,0-.68,0Z"/>
      <path class="cls-2" d="M8.14,5.71c0,.75,0,1.5,0,2.24,0,.15-.04,.19-.19,.19-1.5,0-2.99,0-4.49,0-.15,0-.19-.04-.19-.19,0-1.5,0-2.99,0-4.49,0-.15,.04-.19,.19-.19,1.5,0,2.99,0,4.49,0,.15,0,.19,.04,.19,.19,0,.75,0,1.5,0,2.24Z"/>
      <path class="cls-2" d="M52.27,5.71c0-.75,0-1.5,0-2.24,0-.15,.04-.19,.19-.19,1.5,0,2.99,0,4.49,0,.15,0,.19,.04,.19,.19,0,1.5,0,2.99,0,4.49,0,.15-.04,.19-.19,.19-1.5,0-2.99,0-4.49,0-.15,0-.19-.04-.19-.19,0-.75,0-1.5,0-2.24Z"/>
      <path class="cls-2" d="M8.14,54.71c0,.75,0,1.5,0,2.24,0,.15-.04,.19-.19,.19-1.5,0-2.99,0-4.49,0-.15,0-.19-.04-.19-.19,0-1.5,0-2.99,0-4.49,0-.15,.04-.19,.19-.19,1.5,0,2.99,0,4.49,0,.15,0,.19,.04,.19,.19,0,.75,0,1.5,0,2.24Z"/>
    </g>
    <g>
      <g>
        <path class="cls-4" d="M33.32,37.67c-.93,0-1.83-.44-2.42-1.17-.61-.76-.83-1.77-.62-2.77,.45-2.07,2.27-4.13,4.42-5.01,.21-.09,.53-.15,.76-.15,.75,0,1.43,.41,1.78,1.07,.35,.66,.32,1.45-.09,2.08-.27,.4-.71,1.2-.68,2.07,.04,1.55-.52,2.47-1.01,2.97-.57,.59-1.33,.91-2.15,.91Z"/>
        <g>
          <path class="cls-13" d="M33.54,36.81c-.61,0-1.2-.29-1.59-.77-.41-.51-.56-1.18-.41-1.88,.37-1.72,1.96-3.51,3.78-4.25,.08-.03,.27-.07,.36-.07,.35,0,.67,.2,.84,.51,.17,.31,.15,.69-.04,.98-.41,.62-.89,1.59-.86,2.69,.03,1.18-.37,1.84-.7,2.19-.37,.38-.86,.59-1.38,.59Z"/>
          <path class="cls-1" d="M33.46,36.74c-.61,0-1.2-.29-1.59-.77-.41-.51-.56-1.18-.41-1.88,.37-1.72,1.96-3.51,3.78-4.25,.08-.03,.27-.07,.36-.07,.35,0,.67,.2,.84,.51,.17,.31,.15,.69-.04,.98-.41,.62-.89,1.59-.86,2.69,.03,1.18-.37,1.84-.7,2.19-.37,.38-.86,.59-1.38,.59Z"/>
          <path class="cls-16" d="M33.39,36.67c-.61,0-1.2-.29-1.59-.77-.41-.51-.56-1.18-.41-1.88,.37-1.72,1.96-3.51,3.78-4.25,.08-.03,.27-.07,.36-.07,.35,0,.67,.2,.84,.51,.17,.31,.15,.69-.04,.98-.41,.62-.89,1.59-.86,2.69,.03,1.18-.37,1.84-.7,2.19-.37,.38-.86,.59-1.38,.59Z"/>
          <path class="cls-7" d="M33.32,36.6c-.61,0-1.2-.29-1.59-.77-.41-.51-.56-1.18-.41-1.88,.37-1.72,1.96-3.51,3.78-4.25,.08-.03,.27-.07,.36-.07,.35,0,.67,.2,.84,.51,.17,.31,.15,.69-.04,.98-.41,.62-.89,1.59-.86,2.69,.03,1.18-.37,1.84-.7,2.19-.37,.38-.86,.59-1.38,.59Z"/>
          <path class="cls-17" d="M33.25,36.53c-.61,0-1.2-.29-1.59-.77-.41-.51-.56-1.18-.41-1.88,.37-1.72,1.96-3.51,3.78-4.25,.08-.03,.27-.07,.36-.07,.35,0,.67,.2,.84,.51,.17,.31,.15,.69-.04,.98-.41,.62-.89,1.59-.86,2.69,.03,1.18-.37,1.84-.7,2.19-.37,.38-.86,.59-1.38,.59Z"/>
          <path class="cls-21" d="M33.18,36.46c-.61,0-1.2-.29-1.59-.77-.41-.51-.56-1.18-.41-1.88,.37-1.72,1.96-3.51,3.78-4.25,.08-.03,.27-.07,.36-.07,.35,0,.67,.2,.84,.51,.17,.31,.15,.69-.04,.98-.41,.62-.89,1.59-.86,2.69,.03,1.18-.37,1.84-.7,2.19-.37,.38-.86,.59-1.38,.59Z"/>
          <path class="cls-15" d="M33.11,36.38c-.61,0-1.2-.29-1.59-.77-.41-.51-.56-1.18-.41-1.88,.37-1.72,1.96-3.51,3.78-4.25,.08-.03,.27-.07,.36-.07,.35,0,.67,.2,.84,.51,.17,.31,.15,.69-.04,.98-.41,.62-.89,1.59-.86,2.69,.03,1.18-.37,1.84-.7,2.19-.37,.38-.86,.59-1.38,.59Z"/>
          <path class="cls-6" d="M33.04,36.31c-.61,0-1.2-.29-1.59-.77-.41-.51-.56-1.18-.41-1.88,.37-1.72,1.96-3.51,3.78-4.25,.08-.03,.27-.07,.36-.07,.35,0,.67,.2,.84,.51,.17,.31,.15,.69-.04,.98-.41,.62-.89,1.59-.86,2.69,.03,1.18-.37,1.84-.7,2.19-.37,.38-.86,.59-1.38,.59Z"/>
          <path class="cls-22" d="M32.97,36.24c-.61,0-1.2-.29-1.59-.77-.41-.51-.56-1.18-.41-1.88,.37-1.72,1.96-3.51,3.78-4.25,.08-.03,.27-.07,.36-.07,.35,0,.67,.2,.84,.51,.17,.31,.15,.69-.04,.98-.41,.62-.89,1.59-.86,2.69,.03,1.18-.37,1.84-.7,2.19-.37,.38-.86,.59-1.38,.59Z"/>
        </g>
        <path class="cls-2" d="M32.97,36.24c-.61,0-1.2-.29-1.59-.77-.41-.51-.56-1.18-.41-1.88,.37-1.72,1.96-3.51,3.78-4.25,.08-.03,.27-.07,.36-.07,.35,0,.67,.2,.84,.51,.17,.31,.15,.69-.04,.98-.41,.62-.89,1.59-.86,2.69,.03,1.18-.37,1.84-.7,2.19-.37,.38-.86,.59-1.38,.59Z"/>
        <g>
          <path class="cls-3" d="M34.91,29.9c.22-.09,.43,.17,.3,.37-.43,.65-1.01,1.78-.98,3.11,.08,3.04-3.12,2.32-2.68,.27,.34-1.59,1.85-3.12,3.36-3.74Z"/>
          <path class="cls-3" d="M34.95,29.94c.22-.09,.43,.17,.3,.37-.43,.65-1.01,1.78-.98,3.11,.08,3.04-3.12,2.32-2.68,.27,.34-1.59,1.85-3.12,3.36-3.74Z"/>
          <path class="cls-3" d="M34.99,29.97c.22-.09,.43,.17,.3,.37-.43,.65-1.01,1.78-.98,3.11,.08,3.04-3.12,2.32-2.68,.27,.34-1.59,1.85-3.12,3.36-3.74Z"/>
          <path class="cls-3" d="M35.02,30.01c.22-.09,.43,.17,.3,.37-.43,.65-1.01,1.78-.98,3.11,.08,3.04-3.12,2.32-2.68,.27,.34-1.59,1.85-3.12,3.36-3.74Z"/>
        </g>
        <path class="cls-20" d="M35.13,29.9c.22-.09,.43,.17,.3,.37-.43,.65-1.01,1.78-.98,3.11,.08,3.04-3.12,2.32-2.68,.27,.34-1.59,1.85-3.12,3.36-3.74Z"/>
      </g>
      <g>
        <path class="cls-4" d="M26.18,32.99c-1.71,0-3.26-1.09-3.87-2.71-.64-1.71-.12-3.57,1.35-4.85,1.91-1.66,4.88-2.65,7.94-2.65,1.01,0,1.97,.11,2.87,.32,.97,.23,1.65,1.05,1.71,2.04,.06,.99-.53,1.89-1.46,2.23-1.02,.37-2.9,1.24-4.07,2.9-1.67,2.38-3.52,2.73-4.48,2.73Z"/>
        <g>
          <path class="cls-19" d="M26.39,32.14c-1.28,0-2.41-.79-2.87-2.02-.48-1.28-.07-2.69,1.06-3.67,1.72-1.5,4.42-2.39,7.24-2.39,.92,0,1.81,.1,2.63,.29,.5,.12,.86,.54,.89,1.06,.03,.52-.28,.99-.76,1.16-1.39,.51-3.31,1.49-4.57,3.29-1.03,1.47-2.31,2.28-3.61,2.28Z"/>
          <path class="cls-10" d="M26.32,32.06c-1.28,0-2.41-.79-2.87-2.02-.48-1.28-.07-2.69,1.06-3.67,1.72-1.5,4.42-2.39,7.24-2.39,.92,0,1.81,.1,2.63,.29,.5,.12,.86,.54,.89,1.06,.03,.52-.28,.99-.76,1.16-1.39,.51-3.31,1.49-4.57,3.29-1.03,1.47-2.31,2.28-3.61,2.28Z"/>
          <path class="cls-14" d="M26.25,31.99c-1.28,0-2.41-.79-2.87-2.02-.48-1.28-.07-2.69,1.06-3.67,1.72-1.5,4.42-2.39,7.24-2.39,.92,0,1.81,.1,2.63,.29,.5,.12,.86,.54,.89,1.06,.03,.52-.28,.99-.76,1.16-1.39,.51-3.31,1.49-4.57,3.29-1.03,1.47-2.31,2.28-3.61,2.28Z"/>
          <path class="cls-9" d="M26.18,31.92c-1.28,0-2.41-.79-2.87-2.02-.48-1.28-.07-2.69,1.06-3.67,1.72-1.5,4.42-2.39,7.24-2.39,.92,0,1.81,.1,2.63,.29,.5,.12,.86,.54,.89,1.06,.03,.52-.28,.99-.76,1.16-1.39,.51-3.31,1.49-4.57,3.29-1.03,1.47-2.31,2.28-3.61,2.28Z"/>
          <path class="cls-5" d="M26.11,31.85c-1.28,0-2.41-.79-2.87-2.02-.48-1.28-.07-2.69,1.06-3.67,1.72-1.5,4.42-2.39,7.24-2.39,.92,0,1.81,.1,2.63,.29,.5,.12,.86,.54,.89,1.06,.03,.52-.28,.99-.76,1.16-1.39,.51-3.31,1.49-4.57,3.29-1.03,1.47-2.31,2.28-3.61,2.28Z"/>
          <path class="cls-12" d="M26.04,31.78c-1.28,0-2.41-.79-2.87-2.02-.48-1.28-.07-2.69,1.06-3.67,1.72-1.5,4.42-2.39,7.24-2.39,.92,0,1.81,.1,2.63,.29,.5,.12,.86,.54,.89,1.06,.03,.52-.28,.99-.76,1.16-1.39,.51-3.31,1.49-4.57,3.29-1.03,1.47-2.31,2.28-3.61,2.28Z"/>
          <path class="cls-18" d="M25.97,31.71c-1.28,0-2.41-.79-2.87-2.02-.48-1.28-.07-2.69,1.06-3.67,1.72-1.5,4.42-2.39,7.24-2.39,.92,0,1.81,.1,2.63,.29,.5,.12,.86,.54,.89,1.06,.03,.52-.28,.99-.76,1.16-1.39,.51-3.31,1.49-4.57,3.29-1.03,1.47-2.31,2.28-3.61,2.28Z"/>
          <path class="cls-8" d="M25.9,31.64c-1.28,0-2.41-.79-2.87-2.02-.48-1.28-.07-2.69,1.06-3.67,1.72-1.5,4.42-2.39,7.24-2.39,.92,0,1.81,.1,2.63,.29,.5,.12,.86,.54,.89,1.06,.03,.52-.28,.99-.76,1.16-1.39,.51-3.31,1.49-4.57,3.29-1.03,1.47-2.31,2.28-3.61,2.28Z"/>
          <path class="cls-11" d="M25.83,31.57c-1.28,0-2.41-.79-2.87-2.02-.48-1.28-.07-2.69,1.06-3.67,1.72-1.5,4.42-2.39,7.24-2.39,.92,0,1.81,.1,2.63,.29,.5,.12,.86,.54,.89,1.06,.03,.52-.28,.99-.76,1.16-1.39,.51-3.31,1.49-4.57,3.29-1.03,1.47-2.31,2.28-3.61,2.28Z"/>
        </g>
        <path class="cls-2" d="M25.83,31.57c-1.28,0-2.41-.79-2.87-2.02-.48-1.28-.07-2.69,1.06-3.67,1.72-1.5,4.42-2.39,7.24-2.39,.92,0,1.81,.1,2.63,.29,.5,.12,.86,.54,.89,1.06,.03,.52-.28,.99-.76,1.16-1.39,.51-3.31,1.49-4.57,3.29-1.03,1.47-2.31,2.28-3.61,2.28Z"/>
        <g>
          <path class="cls-3" d="M33.61,24.37c.44,.1,.47,.71,.05,.86-1.38,.5-3.51,1.55-4.91,3.54-3.22,4.58-7.3,.09-4.37-2.46,2.28-1.98,6.25-2.65,9.23-1.94Z"/>
          <path class="cls-3" d="M33.64,24.4c.44,.1,.47,.71,.05,.86-1.38,.5-3.51,1.55-4.91,3.54-3.22,4.58-7.3,.09-4.37-2.46,2.28-1.98,6.25-2.65,9.23-1.94Z"/>
          <path class="cls-3" d="M33.68,24.44c.44,.1,.47,.71,.05,.86-1.38,.5-3.51,1.55-4.91,3.54-3.22,4.58-7.3,.09-4.37-2.46,2.28-1.98,6.25-2.65,9.23-1.94Z"/>
          <path class="cls-3" d="M33.71,24.47c.44,.1,.47,.71,.05,.86-1.38,.5-3.51,1.55-4.91,3.54-3.22,4.58-7.3,.09-4.37-2.46,2.28-1.98,6.25-2.65,9.23-1.94Z"/>
        </g>
        <path class="cls-20" d="M33.82,24.37c.44,.1,.47,.71,.05,.86-1.38,.5-3.51,1.55-4.91,3.54-3.22,4.58-7.3,.09-4.37-2.46,2.28-1.98,6.25-2.65,9.23-1.94Z"/>
      </g>
    </g>
  </g>
</svg>